<?xml version="1.0" encoding="utf-8"?>
<!-- Generator: Adobe Illustrator 26.0.2, SVG Export Plug-In . SVG Version: 6.00 Build 0)  -->
<svg version="1.1" id="Ebene_1" xmlns="http://www.w3.org/2000/svg" xmlns:xlink="http://www.w3.org/1999/xlink" x="0px" y="0px"
	 viewBox="0 0 4000 1301.92" style="enable-background:new 0 0 4000 1301.92;" xml:space="preserve">
<style type="text/css">
	.st0{fill:#FF002B;}
	.st1{fill:#FF0019;}
</style>
<g id="Ebene_2_00000145767281144355700810000002201382210487213502_">
	<g>
		<path class="st0" d="M1035.61,461.95c2.07,8.51,22.33,147.33-49.78,220.2c-31.07,31.4-98.71,53.99-199.95,32.9
			C673.3,691.6,551.92,634.61,494.82,600.31c110.56,73.21,188.38,145.55,239.6,199.1c84.06,87.9,92.63,121.21,83.52,140.89
			c-13.53,29.22-66.94,31.8-90.27,32.9c-73.99,3.5-129.7-32.11-152.7-48.93c-61.55-45.01-90.6-99.39-101.24-121.49
			c-6.81-14.15-37.9-81.35-31.22-172.95c2.01-27.59,8.94-107.48,68.34-184.76c19.67-25.6,66.78-79.13,147.64-108.83
			c35.41-13.01,100.25-29.89,174.64-14.34c110.26,23.04,187.04,104.4,187.45,104.01c0.02-0.02-0.12-0.19-0.16-0.24
			c-39.46-48.92-74.66-74.03-74.66-74.03c-47.59-33.95-92.27-49.14-101.87-52.31c-63.46-20.95-117.5-19.69-143.63-17.72
			c-26.45,2-76.19,8.63-132.03,35.43c-67.68,32.49-109.43,77.85-129.92,103.56c-45.42,56.96-62.42,112.61-68.34,134.99
			c-5.76,21.78-18.07,76.61-8.01,146.37c4.64,32.18,17.2,89.48,55.96,149.33c32.69,50.47,70.16,81.36,90.41,96.32
			c17.89,13.21,55.41,38.39,109.25,55.26c70.25,22.01,129,17.55,151.44,15.05c21.48-2.4,84.62-11.4,152.7-53.15
			c64.09-39.3,99.27-87.19,109.68-102.08c11.75-16.81,38.87-58.71,54.13-119.66c18.61-74.31,8.8-133.73,6.61-146.09
			C1080.82,533.12,1053.37,487.08,1035.61,461.95z"/>
		<circle class="st0" cx="875.32" cy="553.91" r="96.18"/>
		<path class="st0" d="M415.1,929.34c141.34,148.74,363.2,179.29,526.44,79.73c138.41-84.42,214.12-249.83,191.09-418.88
			c-3.76-22.05-41.02-220.91-222.73-311.31c-158.01-78.62-359.19-42.35-496.07,93.65c117.14-151.97,315.58-216.88,497.34-163.25
			c173.72,51.26,302.09,201.92,326.5,383.44c24.73,216.34-102.1,421.01-301.19,492.28C751.01,1151.39,539.23,1088.96,415.1,929.34z"
			/>
	</g>
	<g>
		<path class="st1" d="M1603.63,471.1v-64.96h11.99v64.48c0,26.89,12.64,39.2,34.67,39.2c22.19,0,34.83-12.31,34.83-39.2v-64.48
			h11.66v64.96c0,32.56-17.5,49.41-46.5,49.41C1621.29,520.51,1603.63,503.66,1603.63,471.1z"/>
		<path class="st1" d="M1808.88,470.13v49.41h-11.5v-48.28c0-17.98-9.4-27.22-25.6-27.22c-18.31,0-29.81,11.34-29.81,30.78v44.71
			h-11.5v-85.21h11.02v15.71c6.16-10.37,17.66-16.36,32.4-16.36C1794.63,433.68,1808.88,445.67,1808.88,470.13z"/>
		<path class="st1" d="M1885.02,514.35c-4.54,4.05-11.34,5.99-17.98,5.99c-16.04,0-24.95-9.07-24.95-24.79v-51.52h-15.23v-9.72
			h15.23V415.7h11.5v18.63h25.92v9.72h-25.92v50.87c0,10.04,5.18,15.55,14.74,15.55c4.7,0,9.4-1.46,12.64-4.37L1885.02,514.35z"/>
		<path class="st1" d="M1977.04,480.5h-71.28c1.3,17.82,14.9,29.65,33.53,29.65c10.37,0,19.6-3.73,26.08-11.18l6.48,7.45
			c-7.61,9.07-19.44,13.93-32.89,13.93c-26.57,0-44.71-18.14-44.71-43.42c0-25.27,17.66-43.25,41.63-43.25
			c23.98,0,41.31,17.66,41.31,43.25C1977.2,477.9,1977.04,479.2,1977.04,480.5z M1905.75,471.91h60.43
			c-1.46-16.69-13.61-28.35-30.29-28.35C1919.36,443.56,1907.21,455.22,1905.75,471.91z"/>
		<path class="st1" d="M2043.62,433.68v11.18c-0.97,0-1.94-0.16-2.75-0.16c-17.82,0-28.67,11.34-28.67,31.43v43.42h-11.5v-85.21
			h11.02v16.69C2017.05,439.67,2027.9,433.68,2043.62,433.68z"/>
		<path class="st1" d="M2150.7,476.93c0,25.76-18.14,43.42-42.44,43.42c-14.09,0-25.92-6.16-32.89-17.66v16.85h-11.02V399.33h11.5
			v51.19c7.13-11.02,18.79-16.85,32.4-16.85C2132.55,433.68,2150.7,451.17,2150.7,476.93z M2139.2,476.93
			c0-19.93-13.77-33.21-31.75-33.21c-18.14,0-31.75,13.28-31.75,33.21s13.61,33.21,31.75,33.21
			C2125.42,510.14,2139.2,496.86,2139.2,476.93z"/>
		<path class="st1" d="M2217.12,433.68v11.18c-0.97,0-1.94-0.16-2.75-0.16c-17.82,0-28.67,11.34-28.67,31.43v43.42h-11.5v-85.21
			h11.02v16.69C2190.55,439.67,2201.4,433.68,2217.12,433.68z"/>
		<path class="st1" d="M2315.93,434.33v85.21h-11.02v-15.55c-5.99,10.37-17.01,16.36-30.62,16.36c-21.71,0-35.96-12.15-35.96-36.61
			v-49.41h11.5v48.28c0,18.14,9.4,27.38,25.6,27.38c17.82,0,29-11.5,29-30.94v-44.71h11.5V434.33z"/>
		<path class="st1" d="M2426.58,470.13v49.41h-11.5v-48.28c0-17.98-9.4-27.22-25.6-27.22c-18.31,0-29.81,11.34-29.81,30.78v44.71
			h-11.5v-85.21h11.02v15.71c6.16-10.37,17.66-16.36,32.4-16.36C2412.32,433.68,2426.58,445.67,2426.58,470.13z"/>
		<path class="st1" d="M2536.25,470.13v49.41h-11.5v-48.28c0-17.98-9.4-27.22-25.6-27.22c-18.31,0-29.81,11.34-29.81,30.78v44.71
			h-11.5v-85.21h11.02v15.71c6.16-10.37,17.66-16.36,32.4-16.36C2521.99,433.68,2536.25,445.67,2536.25,470.13z"/>
		<path class="st1" d="M2642.03,480.5h-71.28c1.3,17.82,14.9,29.65,33.54,29.65c10.37,0,19.6-3.73,26.08-11.18l6.48,7.45
			c-7.61,9.07-19.44,13.93-32.89,13.93c-26.57,0-44.71-18.14-44.71-43.42c0-25.27,17.66-43.25,41.63-43.25s41.31,17.66,41.31,43.25
			C2642.2,477.9,2642.03,479.2,2642.03,480.5z M2570.75,471.91h60.43c-1.46-16.69-13.61-28.35-30.29-28.35
			C2584.36,443.56,2572.21,455.22,2570.75,471.91z"/>
		<path class="st1" d="M2708.61,433.68v11.18c-0.97,0-1.94-0.16-2.75-0.16c-17.82,0-28.67,11.34-28.67,31.43v43.42h-11.5v-85.21
			h11.02v16.69C2682.04,439.67,2692.9,433.68,2708.61,433.68z"/>
		<path class="st1" d="M2846.64,489.24h-63.18l-13.61,30.29h-12.47l51.84-113.4h11.83l51.84,113.4h-12.64L2846.64,489.24z
			 M2842.26,479.52l-27.22-60.91l-27.22,60.91H2842.26z M2793.82,386.21c0-3.89,3.08-6.97,6.97-6.97c3.73,0,6.97,3.08,6.97,6.97
			c0,4.05-3.24,6.97-6.97,6.97C2796.9,393.18,2793.82,390.26,2793.82,386.21z M2822.66,386.21c0-3.89,3.24-6.97,6.97-6.97
			c3.89,0,6.97,3.08,6.97,6.97c0,4.05-3.08,6.97-6.97,6.97C2825.9,393.18,2822.66,390.26,2822.66,386.21z"/>
		<path class="st1" d="M2932.17,433.68v11.18c-0.97,0-1.94-0.16-2.75-0.16c-17.82,0-28.67,11.34-28.67,31.43v43.42h-11.5v-85.21
			h11.02v16.69C2905.6,439.67,2916.46,433.68,2932.17,433.68z"/>
		<path class="st1" d="M3014.3,509.98v9.56h-69.34v-7.61l53.62-67.88h-52.65v-9.72h67.39v7.61l-53.62,68.04L3014.3,509.98
			L3014.3,509.98z"/>
		<path class="st1" d="M3082.01,514.35c-4.54,4.05-11.34,5.99-17.98,5.99c-16.04,0-24.95-9.07-24.95-24.79v-51.52h-15.23v-9.72
			h15.23V415.7h11.5v18.63h25.92v9.72h-25.92v50.87c0,10.04,5.18,15.55,14.74,15.55c4.7,0,9.4-1.46,12.64-4.37L3082.01,514.35z"/>
		<path class="st1" d="M3174.03,480.5h-71.28c1.3,17.82,14.9,29.65,33.54,29.65c10.37,0,19.6-3.73,26.08-11.18l6.48,7.45
			c-7.61,9.07-19.44,13.93-32.89,13.93c-26.57,0-44.71-18.14-44.71-43.42c0-25.27,17.66-43.25,41.63-43.25s41.31,17.66,41.31,43.25
			C3174.19,477.9,3174.03,479.2,3174.03,480.5z M3102.75,471.91h60.43c-1.46-16.69-13.61-28.35-30.29-28.35
			C3116.36,443.56,3104.21,455.22,3102.75,471.91z"/>
		<path class="st1" d="M3276.09,470.13v49.41h-11.5v-48.28c0-17.98-9.4-27.22-25.6-27.22c-18.31,0-29.81,11.34-29.81,30.78v44.71
			h-11.5v-120.2h11.5v49.9c6.32-9.88,17.5-15.55,31.92-15.55C3261.83,433.68,3276.09,445.67,3276.09,470.13z"/>
		<path class="st1" d="M3371.67,466.73v52.81h-11.02v-13.28c-5.18,8.75-15.23,14.09-29.32,14.09c-19.28,0-31.1-10.04-31.1-24.79
			c0-13.12,8.42-24.14,32.89-24.14h27.05v-5.18c0-14.58-8.26-22.52-24.14-22.52c-11.02,0-21.38,3.89-28.35,10.04l-5.18-8.59
			c8.59-7.29,21.22-11.5,34.67-11.5C3359.19,433.68,3371.67,444.69,3371.67,466.73z M3360.16,493.94v-13.93h-26.73
			c-16.52,0-21.87,6.48-21.87,15.23c0,9.88,7.94,16.04,21.55,16.04C3346.07,511.28,3355.63,505.12,3360.16,493.94z"/>
		<path class="st1" d="M3479.72,434.33v85.21h-11.02v-15.55c-5.99,10.37-17.01,16.36-30.62,16.36c-21.71,0-35.96-12.15-35.96-36.61
			v-49.41h11.5v48.28c0,18.14,9.4,27.38,25.6,27.38c17.82,0,29-11.5,29-30.94v-44.71h11.5V434.33z"/>
		<path class="st1" d="M3500.13,509.82l5.18-9.07c6.8,5.35,18.31,9.56,30.29,9.56c16.2,0,22.84-5.51,22.84-13.93
			c0-22.19-55.24-4.7-55.24-38.39c0-13.93,11.99-24.3,33.7-24.3c11.02,0,23,3.08,30.13,7.94l-5.02,9.23
			c-7.45-5.18-16.36-7.29-25.11-7.29c-15.39,0-22.19,5.99-22.19,14.09c0,23,55.24,5.67,55.24,38.39c0,14.74-12.96,24.3-35.15,24.3
			C3520.7,520.35,3507.09,515.81,3500.13,509.82z"/>
		<path class="st1" d="M1810.46,762.42c0,50.88-38.4,82.56-99.52,82.56h-39.04v58.56h-63.36v-224h102.4
			C1772.06,679.53,1810.46,711.22,1810.46,762.42z M1746.46,762.42c0-20.8-13.12-32.96-39.36-32.96h-35.2v65.6h35.2
			C1733.34,795.06,1746.46,782.9,1746.46,762.42z"/>
		<path class="st1" d="M2054.3,679.53v224h-63.36v-87.36h-86.4v87.36h-63.36v-224h63.36v84.16h86.4v-84.16H2054.3z"/>
		<path class="st1" d="M2249.18,860.02h-94.72l-17.6,43.52h-64.64l98.88-224h62.4l99.2,224h-65.92L2249.18,860.02z M2230.62,813.3
			l-28.8-71.68l-28.8,71.68H2230.62z"/>
		<path class="st1" d="M2448.54,844.02h-34.56v59.52h-63.36v-224h102.4c61.12,0,99.52,31.68,99.52,82.88
			c0,32.96-16,57.28-43.84,70.72l48.32,70.4h-67.84L2448.54,844.02z M2449.18,729.46h-35.2v65.6h35.2
			c26.24,0,39.36-12.16,39.36-32.64C2488.54,741.62,2475.42,729.46,2449.18,729.46z"/>
		<path class="st1" d="M2789.66,903.54l-0.64-118.72l-57.6,96.64h-28.16l-57.28-93.44v115.52h-58.56v-224h52.16l78.72,129.28
			l76.8-129.28h52.16l0.64,224L2789.66,903.54L2789.66,903.54z"/>
		<path class="st1" d="M3042.77,860.02h-94.72l-17.6,43.52h-64.64l98.88-224h62.4l99.2,224h-65.92L3042.77,860.02z M3024.21,813.3
			l-28.8-71.68l-28.8,71.68H3024.21z"/>
		<path class="st1" d="M3129.49,791.54c0-68.16,52.16-116.48,123.2-116.48c41.28,0,74.56,15.04,96.32,42.24l-40.32,36.48
			c-14.08-16.96-31.36-26.24-52.8-26.24c-36.8,0-62.4,25.6-62.4,64s25.6,64,62.4,64c21.44,0,38.72-9.28,52.8-26.24l40.32,36.48
			c-21.76,27.2-55.04,42.24-96.32,42.24C3181.65,908.02,3129.49,859.7,3129.49,791.54z"/>
		<path class="st1" d="M3496.21,823.22v80.32h-63.36v-81.28l-85.44-142.72h66.88l53.12,88.96l53.12-88.96h61.44L3496.21,823.22z"/>
	</g>
</g>
</svg>
