<?xml version="1.0" encoding="utf-8"?>
<!-- Generator: Adobe Illustrator 26.0.2, SVG Export Plug-In . SVG Version: 6.00 Build 0)  -->
<svg version="1.1" id="Ebene_2" xmlns="http://www.w3.org/2000/svg" xmlns:xlink="http://www.w3.org/1999/xlink" x="0px" y="0px"
	 viewBox="0 0 4000 4000" style="enable-background:new 0 0 4000 4000;" xml:space="preserve">
<style type="text/css">
	.st0{fill:#FFFFFF;stroke:#1D1D1B;stroke-miterlimit:10;}
	.st1{fill:#FF002B;}
	.st2{fill:#96C122;}
	.st3{display:none;}
	.st4{display:inline;fill:#FFFFFF;}
</style>
<circle class="st0" cx="2000" cy="2000" r="1739.14"/>
<g>
	<path class="st1" d="M2797.38,1387.79c6.69,27.56,72.33,477.21-161.23,713.22c-100.65,101.71-319.72,174.89-647.64,106.57
		c-364.66-75.97-757.82-260.54-942.77-371.64c358.11,237.13,610.18,471.43,776.08,644.91c272.27,284.71,300.04,392.62,270.53,456.35
		c-43.82,94.63-216.83,103-292.39,106.57c-239.67,11.34-420.11-104.01-494.61-158.49c-199.36-145.8-293.45-321.92-327.92-393.5
		c-22.07-45.84-122.77-263.5-101.11-560.19c6.52-89.35,28.97-348.12,221.35-598.45c63.72-82.91,216.32-256.29,478.22-352.51
		c114.71-42.14,324.73-96.8,565.66-46.46c357.14,74.62,605.84,338.15,607.17,336.91c0.07-0.07-0.38-0.63-0.52-0.79
		c-127.82-158.45-241.84-239.79-241.84-239.79c-154.14-109.96-298.87-159.16-329.97-169.42c-205.57-67.87-380.59-63.77-465.24-57.39
		c-85.66,6.46-246.78,27.95-427.66,114.77c-219.23,105.23-354.44,252.17-420.83,335.43c-147.11,184.5-202.19,364.74-221.35,437.23
		c-18.64,70.55-58.53,248.15-25.96,474.12c15.02,104.24,55.71,289.82,181.27,483.68c105.89,163.49,227.24,263.54,292.85,311.98
		c57.94,42.78,179.47,124.35,353.88,178.99c227.55,71.29,417.85,56.86,490.51,48.73c69.56-7.78,274.08-36.94,494.61-172.16
		c207.58-127.28,321.53-282.41,355.25-330.65c38.07-54.46,125.89-190.15,175.35-387.58c60.29-240.68,28.51-433.15,21.41-473.21
		C2943.82,1618.31,2854.91,1469.17,2797.38,1387.79z"/>
	<path class="st2" d="M2420.27,2133.81"/>
	<circle class="st1" cx="2278.18" cy="1685.65" r="311.52"/>
	<path class="st1" d="M787.51,2901.68c457.8,481.77,1176.43,580.72,1705.18,258.24c448.32-273.43,693.56-809.22,618.95-1356.77
		c-12.17-71.42-132.88-715.53-721.42-1008.35c-511.8-254.64-1163.43-137.17-1606.8,303.33
		c379.43-492.23,1022.18-702.48,1610.9-528.77c562.67,166.03,978.48,654.02,1057.54,1241.99
		c80.1,700.74-330.7,1363.68-975.56,1594.51C1875.53,3620.9,1189.58,3418.7,787.51,2901.68z"/>
</g>
<g>
	<g class="st3">
		<path class="st4" d="M873.86,2630.42v127.75h147.68v-127.75h39.86v305.32h-39.86v-143.15H873.86v143.15h-39.41v-305.32H873.86z"/>
		<path class="st4" d="M1150.64,2833.36c0.91,53.91,35.33,76.1,75.2,76.1c28.54,0,45.75-4.98,60.7-11.33l6.79,28.54
			c-14.04,6.34-38.05,13.59-72.93,13.59c-67.5,0-107.81-44.39-107.81-110.53c0-66.14,38.96-118.23,102.83-118.23
			c71.57,0,90.6,62.97,90.6,103.28c0,8.15-0.91,14.5-1.36,18.57H1150.64z M1267.51,2804.82c0.45-25.37-10.42-64.78-55.27-64.78
			c-40.32,0-57.98,37.15-61.16,64.78H1267.51z"/>
		<path class="st4" d="M1476.8,2935.74l-3.17-27.63h-1.36c-12.23,17.21-35.79,32.62-67.04,32.62c-44.39,0-67.04-31.26-67.04-62.97
			c0-53,47.11-81.99,131.82-81.54v-4.53c0-18.12-4.98-50.74-49.83-50.74c-20.39,0-41.68,6.34-57.08,16.31l-9.06-26.27
			c18.12-11.78,44.39-19.48,72.03-19.48c67.04,0,83.35,45.75,83.35,89.69v81.99c0,19.03,0.91,37.6,3.62,52.55H1476.8z
			 M1470.91,2823.85c-43.49-0.91-92.87,6.79-92.87,49.38c0,25.82,17.21,38.05,37.6,38.05c28.54,0,46.66-18.12,53-36.69
			c1.36-4.08,2.27-8.61,2.27-12.68V2823.85z"/>
		<path class="st4" d="M1573.73,2614.11h39.86v321.63h-39.86V2614.11z"/>
		<path class="st4" d="M1728.66,2653.52v62.97h57.08v30.35h-57.08v118.23c0,27.18,7.7,42.58,29.9,42.58
			c10.42,0,18.12-1.36,23.1-2.72l1.81,29.9c-7.7,3.17-19.93,5.44-35.33,5.44c-18.57,0-33.52-5.89-43.04-16.76
			c-11.33-11.78-15.4-31.26-15.4-57.08v-119.59h-33.98v-30.35h33.98v-52.55L1728.66,2653.52z"/>
		<path class="st4" d="M1830.58,2614.11h39.86v136.81h0.91c6.34-11.33,16.31-21.29,28.54-28.09c11.78-6.79,25.82-11.33,40.77-11.33
			c29.45,0,76.56,18.12,76.56,93.77v130.46h-39.86V2809.8c0-35.33-13.14-65.23-50.74-65.23c-25.82,0-46.21,18.12-53.45,39.86
			c-2.27,5.44-2.72,11.33-2.72,19.03v132.28h-39.86V2614.11z"/>
		<path class="st4" d="M2096.49,2716.49l48.02,129.56c4.98,14.5,10.42,31.71,14.04,44.85h0.91c4.08-13.14,8.61-29.9,14.04-45.75
			l43.49-128.65h42.13l-59.8,156.29c-28.54,75.2-48.02,113.7-75.2,137.26c-19.48,17.21-38.96,24.01-48.92,25.82l-9.97-33.52
			c9.97-3.17,23.1-9.51,34.88-19.48c10.87-8.61,24.46-24.01,33.52-44.39c1.81-4.08,3.17-7.25,3.17-9.51c0-2.27-0.91-5.44-2.72-10.42
			L2053,2716.49H2096.49z"/>
		<path class="st4" d="M2388.36,2634.46c21.24-3.55,51.13-6.42,93.19-6.42c42.36,0,72.98,8.24,93.43,24.66
			c19.54,15.16,32.37,40.66,32.37,70.6c0,29.94-9.68,55.42-27.88,72.3c-23.59,22.16-58.75,32.39-99.16,32.39
			c-9.15,0-17.32-0.61-23.55-1.57v109.32h-68.41V2634.46z M2456.76,2772.94c5.73,1.32,12.84,1.83,22.92,1.83
			c36.66,0,59.3-18.55,59.3-49.49c0-28.1-19.23-44.82-54.03-44.82c-13.63,0-23.16,1.12-28.19,2.28V2772.94z"/>
		<path class="st4" d="M2649.06,2614.11h69.03v321.63h-69.03V2614.11z"/>
		<path class="st4" d="M2982.46,2864.67c0,28.83,0.86,52.63,1.81,71.07h-59.79l-3.17-31.29h-1.44
			c-8.66,13.7-29.33,36.28-69.09,36.28c-45.05,0-77.88-28.17-77.88-96.35v-130.37h69.03v119.16c0,32.45,10.41,51.87,34.72,51.87
			c18.74,0,29.83-13,34.27-24.25c1.73-4.03,2.52-9.1,2.52-14.63v-132.14h69.03V2864.67z"/>
		<path class="st4" d="M3037.45,2875.67c12.56,7.72,39.04,16.49,59.11,16.49c20.8,0,29.7-7.01,29.7-18.32
			c0-11.48-7.06-17.04-32.54-25.64c-46.1-15.16-63.46-40.24-63.19-66.27c0-41.64,35.14-72.91,90.15-72.91
			c25.94,0,48.89,6.09,62.45,12.92l-12,47.47c-9.97-5.23-29.29-12.51-48.04-12.51c-16.83,0-26.46,6.71-26.46,17.86
			c0,10.62,8.79,16.22,35.96,25.6c42.07,14.29,59.7,35.93,59.96,68.26c0,41.37-32.27,71.87-95.8,71.87
			c-28.9,0-54.88-6.54-71.79-15.6L3037.45,2875.67z"/>
	</g>
</g>
<g>
	<g class="st3">
		<path class="st4" d="M1231.83,3164.93l-2.58,13.66h-50.74l2.58-13.66H1231.83z"/>
		<path class="st4" d="M1327.85,3080.35l-13.96,67.86l0.41,0.14c9.39-14.49,24.13-22.49,39.33-22.49c24.01,0,33.8,18.79,33.8,38.26
			c0,31.04-24.18,66.55-66.21,66.55c-18.93,0-34.49-7.17-34.43-28.29c0-5.14,0.89-11.46,1.96-16.94l21.18-105.09H1327.85z
			 M1306.38,3186.77c-0.7,3.53-1.45,7.82-1.32,13.54c0.12,10.73,6.63,16.35,18.7,16.35c27.76,0,45.07-27.2,45.07-50.8
			c0-12.69-6.34-25.41-21.85-25.41c-16.78,0-34.14,16.61-39.75,42.33L1306.38,3186.77z"/>
		<path class="st4" d="M1478.91,3222.23c-7.65,4.32-21.2,8.45-36.18,8.45c-28.37,0-41.35-18.74-41.35-41.82
			c0-31.03,24.74-63,58.09-63c20.46,0,32.24,11.4,32.24,26.6c0,26.9-32.28,32.67-72.39,31.72c-0.97,4.81,0.04,13.49,2.48,18.61
			c4.62,9.2,13.46,13.6,24.52,13.6c13.25,0,23.33-3.8,29.94-7.33L1478.91,3222.23z M1457.01,3139.4c-18.78,0-32.05,17.58-35.77,31.2
			c30.57,0.43,53.04-2.56,53.04-17.93C1474.28,3144.08,1466.96,3139.4,1457.01,3139.4z"/>
		<path class="st4" d="M1578.48,3223.45c-5.58,2.83-17.45,7.22-33.24,7.22c-27.58,0-42.13-17.77-42.13-39.61
			c0-35.72,28.08-65.2,65.07-65.2c10.98,0,20.99,3.4,24.38,5.47l-5.21,13.89c-4.67-2.31-11.19-4.58-20.19-4.58
			c-27.62,0-45.39,24.21-45.39,48.07c0,16.78,9.89,27.43,27.84,27.43c12.2,0,21.22-3.82,26.71-6.58L1578.48,3223.45z"/>
		<path class="st4" d="M1672.01,3228.19c-0.16-6.13,0.97-16.88,2.48-28.07h-0.41c-11.11,22.02-26.55,30.55-42.88,30.55
			c-19.72,0-32.05-15.4-32.05-34.61c0-36.28,28.74-70.2,73.78-70.2c10.45,0,22,1.74,29.83,3.97l-9.73,50.36
			c-3.51,18.66-4.77,37-4.21,48H1672.01z M1682.62,3141.65c-2.56-0.85-6.83-1.63-13.81-1.63c-27.04,0-51,23.64-51,53.4
			c0,10.69,4.44,22.81,19.67,22.81c15.77,0,34.56-18.26,39.89-47.02L1682.62,3141.65z"/>
		<path class="st4" d="M1820.94,3128.34l-13.83,72.49c-1.88,9.98-3.39,19-4.4,27.37h-16.17l3.01-19.92h-0.41
			c-9.29,13.24-23.69,22.4-38.09,22.4c-13.16,0-29.55-5.04-29.55-31.71c0-4.56,0.62-10.12,2-17.16l10.3-53.46h17.84l-10.2,53.29
			c-1.05,5.53-1.67,10.34-1.67,14.31c0,11.74,4.81,19.73,18.43,19.73c13.36,0,31.1-14.91,35.52-38.26l9.37-49.07H1820.94z"/>
		<path class="st4" d="M1835.8,3210.21c5.23,3.1,14.94,6.73,23.47,6.73c11.99,0,19.94-7.47,19.94-16.13
			c0-7.41-3.22-12.11-15.11-18.08c-13.11-6.48-19.73-15.32-19.73-25.83c0-17.62,16.07-31.04,37.88-31.04
			c9.85,0,18.57,2.68,22.54,5.35l-5.06,13.42c-3.57-2.07-10.53-5.04-19.08-5.04c-10.51,0-18.39,6.42-18.39,14.83
			c0,7.24,4.91,11.64,15.24,16.88c12.2,6.09,20.18,14.64,20.18,26.25c0,20.82-18.11,33.12-40.01,33.12
			c-11.69,0-21.79-3.49-26.92-7.33L1835.8,3210.21z"/>
		<path class="st4" d="M1995.73,3222.23c-7.65,4.32-21.2,8.45-36.18,8.45c-28.37,0-41.35-18.74-41.35-41.82
			c0-31.03,24.74-63,58.09-63c20.46,0,32.24,11.4,32.24,26.6c0,26.9-32.28,32.67-72.39,31.72c-0.97,4.81,0.04,13.49,2.48,18.61
			c4.62,9.2,13.46,13.6,24.52,13.6c13.25,0,23.33-3.8,29.94-7.33L1995.73,3222.23z M1973.83,3139.4c-18.78,0-32.05,17.58-35.77,31.2
			c30.57,0.43,53.04-2.56,53.04-17.93C1991.11,3144.08,1983.78,3139.4,1973.83,3139.4z"/>
		<path class="st4" d="M2082.27,3128.34l4.5,56.2c1.07,12.88,0.95,19.14,0.91,27.39h0.41c2.4-6.22,6.3-15.08,11.61-25.3l31.53-58.29
			h15.94l7.74,57c1.28,11.07,2.12,20.36,2.29,26.59h0.41c2.77-8.24,5.58-15.95,9.71-25.27l28.6-58.32h18.32l-51.39,99.86h-16.97
			l-7.94-54.31c-1.2-9.75-1.98-18.3-2.1-27.1h-0.41c-4.59,9.78-7.54,17.06-12.53,26.42l-30.37,55h-16.97l-10.72-99.86H2082.27z"/>
		<path class="st4" d="M2293.69,3222.23c-7.65,4.32-21.2,8.45-36.18,8.45c-28.37,0-41.35-18.74-41.35-41.82
			c0-31.03,24.74-63,58.09-63c20.46,0,32.24,11.4,32.24,26.6c0,26.9-32.28,32.67-72.39,31.72c-0.97,4.81,0.04,13.49,2.48,18.61
			c4.62,9.2,13.46,13.6,24.52,13.6c13.25,0,23.33-3.8,29.94-7.33L2293.69,3222.23z M2271.79,3139.4c-18.79,0-32.05,17.58-35.77,31.2
			c30.57,0.43,53.04-2.56,53.04-17.93C2289.06,3144.08,2281.74,3139.4,2271.79,3139.4z"/>
		<path class="st4" d="M2433.11,3223.45c-5.58,2.83-17.45,7.22-33.24,7.22c-27.58,0-42.13-17.77-42.13-39.61
			c0-35.72,28.08-65.2,65.07-65.2c10.98,0,20.99,3.4,24.38,5.47l-5.21,13.89c-4.67-2.31-11.19-4.58-20.19-4.58
			c-27.62,0-45.39,24.21-45.39,48.07c0,16.78,9.89,27.43,27.85,27.43c12.2,0,21.22-3.82,26.71-6.58L2433.11,3223.45z"/>
		<path class="st4" d="M2526.63,3228.19c-0.17-6.13,0.97-16.88,2.48-28.07h-0.41c-11.11,22.02-26.55,30.55-42.88,30.55
			c-19.72,0-32.05-15.4-32.05-34.61c0-36.28,28.74-70.2,73.78-70.2c10.45,0,22,1.74,29.83,3.97l-9.73,50.36
			c-3.51,18.66-4.77,37-4.21,48H2526.63z M2537.24,3141.65c-2.56-0.85-6.83-1.63-13.81-1.63c-27.04,0-51,23.64-51,53.4
			c0,10.69,4.44,22.81,19.67,22.81c15.76,0,34.56-18.26,39.89-47.02L2537.24,3141.65z"/>
		<path class="st4" d="M2571.55,3228.19l12.06-63.38c2.44-12.91,4.05-26.61,5.31-36.48h15.77c-0.99,7.52-1.98,15.03-3.18,22.69h0.62
			c6.65-14.14,17.97-25.17,32.48-25.17c1.78,0,4.13,0.14,5.62,0.43l-3.47,17.32c-1.45-0.29-3.18-0.43-5.55-0.43
			c-15.35,0-29.28,17.8-34.09,43.75l-7.72,41.26H2571.55z"/>
		<path class="st4" d="M2719.66,3222.23c-7.65,4.32-21.2,8.45-36.18,8.45c-28.37,0-41.35-18.74-41.35-41.82
			c0-31.03,24.74-63,58.09-63c20.46,0,32.24,11.4,32.24,26.6c0,26.9-32.28,32.67-72.39,31.72c-0.97,4.81,0.04,13.49,2.48,18.61
			c4.62,9.2,13.46,13.6,24.52,13.6c13.25,0,23.33-3.8,29.94-7.33L2719.66,3222.23z M2697.76,3139.4c-18.79,0-32.05,17.58-35.77,31.2
			c30.57,0.43,53.04-2.56,53.04-17.93C2715.03,3144.08,2707.7,3139.4,2697.76,3139.4z"/>
		<path class="st4" d="M2837.01,3164.93l-2.58,13.66h-50.74l2.58-13.66H2837.01z"/>
	</g>
</g>
</svg>
