<svg version="1.1" xmlns="http://www.w3.org/2000/svg" xmlns:xlink="http://www.w3.org/1999/xlink" width="1987" height="995"><defs/><g><g transform="translate(-110,-670) scale(1,1)"><rect fill="#ffffff" stroke="none" x="120" y="680" width="1967" height="975"/></g><g transform="translate(-110,-670) scale(1,1)"><path fill="none" stroke="#000000" d="M 120 680 L 2087 680 L 2087 1655 L 120 1655 L 120 680 Z Z" stroke-miterlimit="10"/></g><g transform="translate(-110,-670) scale(1,1)"><rect fill="#C0C0C0" stroke="none" x="207" y="959" width="716.8" height="15" opacity="0.2"/></g><g transform="translate(-110,-670) scale(1,1)"><rect fill="#C0C0C0" stroke="none" x="207" y="973" width="1792" height="482" opacity="0.2"/></g><g transform="translate(-110,-670) scale(1,1)"><rect fill="#ffffff" stroke="none" x="200" y="967" width="1792" height="481"/></g><g transform="translate(-110,-670) scale(1,1)"><path fill="none" stroke="#000000" d="M 200 967 L 1992 967 L 1992 1448 L 200 1448 L 200 967 Z Z" stroke-miterlimit="10"/></g><g transform="translate(-110,-670) scale(1,1)"><rect fill="#ffffff" stroke="none" x="200" y="952" width="716.8" height="15"/></g><g transform="translate(-110,-670) scale(1,1)"><path fill="none" stroke="#000000" d="M 200 952 L 916.8 952 L 916.8 967 L 200 967 L 200 952 Z Z" stroke-miterlimit="10"/></g><g transform="translate(-110,-670) scale(1,1)"><rect fill="#ffffff" stroke="none" x="200" y="966" width="1792" height="482"/></g><g transform="translate(-110,-670) scale(1,1)"><path fill="none" stroke="#000000" d="M 200 966 L 1992 966 L 1992 1448 L 200 1448 L 200 966 Z Z" stroke-miterlimit="10"/></g><g transform="translate(-110,-670) scale(1,1)"><g><path fill="none" stroke="none"/><text fill="#000000" stroke="none" font-family="Arial" font-size="13px" font-style="normal" font-weight="bold" text-decoration="none" x="1034.697509765625" y="986.5">pharmacy.accounting</text></g></g><g transform="translate(-110,-670) scale(1,1)"><rect fill="#C0C0C0" stroke="none" x="263" y="1047" width="776" height="360" opacity="0.2"/></g><g transform="translate(-110,-670) scale(1,1)"><rect fill="#ffeaad" stroke="none" x="256" y="1040" width="776" height="360"/></g><g transform="translate(-110,-670) scale(1,1)"><path fill="none" stroke="#000000" d="M 256 1040 L 1032 1040 L 1032 1400 L 256 1400 L 256 1040 Z Z" stroke-miterlimit="10"/></g><g transform="translate(-110,-670) scale(1,1)"><path fill="none" stroke="#000000" d="M 256 1065 L 1032 1065" stroke-miterlimit="10"/></g><g transform="translate(-110,-670) scale(1,1)"><path fill="none" stroke="#000000" d="M 256 1088 L 1032 1088" stroke-miterlimit="10"/></g><g transform="translate(-110,-670) scale(1,1)"><g><path fill="none" stroke="none"/><text fill="#000000" stroke="none" font-family="Arial" font-size="13px" font-style="normal" font-weight="bold" text-decoration="none" x="583.662353515625" y="1059.5">AccountingController</text></g></g><g transform="translate(-110,-670) scale(1,1)"><g><path fill="none" stroke="none"/><text fill="#000000" stroke="none" font-family="Arial" font-size="13px" font-style="normal" font-weight="normal" text-decoration="none" x="261" y="1082.5">+accountingManagement: AccountingManagement</text></g></g><g transform="translate(-110,-670) scale(1,1)"><g><path fill="none" stroke="none"/><text fill="#000000" stroke="none" font-family="Arial" font-size="13px" font-style="normal" font-weight="normal" text-decoration="none" x="261" y="1105.5">+financialStatistics(model: Model): String</text></g></g><g transform="translate(-110,-670) scale(1,1)"><g><path fill="none" stroke="none"/><text fill="#000000" stroke="none" font-family="Arial" font-size="13px" font-style="normal" font-weight="normal" text-decoration="none" x="261" y="1120.5">+getOrderDetail(identifier : OrderIdentifier, orderValue: String, orderDate: String, orderAccount: String, model: Model): String</text></g></g><g transform="translate(-110,-670) scale(1,1)"><rect fill="#C0C0C0" stroke="none" x="1303" y="1039" width="608" height="359" opacity="0.2"/></g><g transform="translate(-110,-670) scale(1,1)"><rect fill="#ffeaad" stroke="none" x="1296" y="1032" width="608" height="359"/></g><g transform="translate(-110,-670) scale(1,1)"><path fill="none" stroke="#000000" d="M 1296 1032 L 1904 1032 L 1904 1391 L 1296 1391 L 1296 1032 Z Z" stroke-miterlimit="10"/></g><g transform="translate(-110,-670) scale(1,1)"><path fill="none" stroke="#000000" d="M 1296 1057 L 1904 1057" stroke-miterlimit="10"/></g><g transform="translate(-110,-670) scale(1,1)"><path fill="none" stroke="#000000" d="M 1296 1155 L 1904 1155" stroke-miterlimit="10"/></g><g transform="translate(-110,-670) scale(1,1)"><g><path fill="none" stroke="none"/><text fill="#000000" stroke="none" font-family="Arial" font-size="13px" font-style="normal" font-weight="bold" text-decoration="none" x="1529.899658203125" y="1051.5">AccountingManagement</text></g></g><g transform="translate(-110,-670) scale(1,1)"><g><path fill="none" stroke="none"/><text fill="#000000" stroke="none" font-family="Arial" font-size="13px" font-style="normal" font-weight="normal" text-decoration="none" x="1301" y="1074.5">+totalBalance: MonetaryAmount</text></g></g><g transform="translate(-110,-670) scale(1,1)"><g><path fill="none" stroke="none"/><text fill="#000000" stroke="none" font-family="Arial" font-size="13px" font-style="normal" font-weight="normal" text-decoration="none" x="1301" y="1089.5">+totalIncome: MonetaryAmount</text></g></g><g transform="translate(-110,-670) scale(1,1)"><g><path fill="none" stroke="none"/><text fill="#000000" stroke="none" font-family="Arial" font-size="13px" font-style="normal" font-weight="normal" text-decoration="none" x="1301" y="1104.5">+totalExpenses: MonetaryAmount</text></g></g><g transform="translate(-110,-670) scale(1,1)"><g><path fill="none" stroke="none"/><text fill="#000000" stroke="none" font-family="Arial" font-size="13px" font-style="normal" font-weight="normal" text-decoration="none" x="1301" y="1119.5">+checkoutIncome: MonetaryAmount</text></g></g><g transform="translate(-110,-670) scale(1,1)"><g><path fill="none" stroke="none"/><text fill="#000000" stroke="none" font-family="Arial" font-size="13px" font-style="normal" font-weight="normal" text-decoration="none" x="1301" y="1134.5">+selfCheckoutIncome: MonetaryAmount</text></g></g><g transform="translate(-110,-670) scale(1,1)"><g><path fill="none" stroke="none"/><text fill="#000000" stroke="none" font-family="Arial" font-size="13px" font-style="normal" font-weight="normal" text-decoration="none" x="1301" y="1149.5">+docCheckoutIncome: MonetaryAmount</text></g></g><g transform="translate(-110,-670) scale(1,1)"><g><path fill="none" stroke="none"/><text fill="#000000" stroke="none" font-family="Arial" font-size="13px" font-style="normal" font-weight="normal" text-decoration="none" x="1301" y="1172.5">+updateCheckoutIncome(model : Model, amount : MonetaryAmount): void</text></g></g><g transform="translate(-110,-670) scale(1,1)"><g><path fill="none" stroke="none"/><text fill="#000000" stroke="none" font-family="Arial" font-size="13px" font-style="normal" font-weight="normal" text-decoration="none" x="1301" y="1187.5">+updateSelfCheckoutIncome(model: Model, amount: MonetaryAmount): void</text></g></g><g transform="translate(-110,-670) scale(1,1)"><g><path fill="none" stroke="none"/><text fill="#000000" stroke="none" font-family="Arial" font-size="13px" font-style="normal" font-weight="normal" text-decoration="none" x="1301" y="1202.5">+updateDocCheckout(model: Model, amount: MonetaryAmount): void</text></g></g><g transform="translate(-110,-670) scale(1,1)"><g><path fill="none" stroke="none"/><text fill="#000000" stroke="none" font-family="Arial" font-size="13px" font-style="normal" font-weight="normal" text-decoration="none" x="1301" y="1217.5">+updateExpenses(model: Model, amount: MonetaryAmount): void</text></g></g><g transform="translate(-110,-670) scale(1,1)"><g><path fill="none" stroke="none"/><text fill="#000000" stroke="none" font-family="Arial" font-size="13px" font-style="normal" font-weight="normal" text-decoration="none" x="1301" y="1232.5">+findAll(): Streamable&lt;AccountancyEntry&gt;</text></g></g><g transform="translate(-110,-670) scale(1,1)"><rect fill="#C0C0C0" stroke="none" x="263" y="767" width="262" height="15" opacity="0.2"/></g><g transform="translate(-110,-670) scale(1,1)"><rect fill="#C0C0C0" stroke="none" x="263" y="781" width="655" height="121" opacity="0.2"/></g><g transform="translate(-110,-670) scale(1,1)"><rect fill="#ffeaad" stroke="none" x="256" y="775" width="655" height="120"/></g><g transform="translate(-110,-670) scale(1,1)"><path fill="none" stroke="#000000" d="M 256 775 L 911 775 L 911 895 L 256 895 L 256 775 Z Z" stroke-miterlimit="10"/></g><g transform="translate(-110,-670) scale(1,1)"><rect fill="#ffeaad" stroke="none" x="256" y="760" width="262" height="15"/></g><g transform="translate(-110,-670) scale(1,1)"><path fill="none" stroke="#000000" d="M 256 760 L 518 760 L 518 775 L 256 775 L 256 760 Z Z" stroke-miterlimit="10"/></g><g transform="translate(-110,-670) scale(1,1)"><rect fill="#ffeaad" stroke="none" x="256" y="774" width="655" height="121"/></g><g transform="translate(-110,-670) scale(1,1)"><path fill="none" stroke="#000000" d="M 256 774 L 911 774 L 911 895 L 256 895 L 256 774 Z Z" stroke-miterlimit="10"/></g><g transform="translate(-110,-670) scale(1,1)"><g><path fill="none" stroke="none"/><text fill="#000000" stroke="none" font-family="Arial" font-size="13px" font-style="normal" font-weight="bold" text-decoration="none" x="553.1455078125" y="794.5">Salespoint</text></g></g><g transform="translate(-110,-670) scale(1,1)"><rect fill="#C0C0C0" stroke="none" x="1247" y="759" width="300.4000000000001" height="15" opacity="0.2"/></g><g transform="translate(-110,-670) scale(1,1)"><rect fill="#C0C0C0" stroke="none" x="1247" y="773" width="751" height="121" opacity="0.2"/></g><g transform="translate(-110,-670) scale(1,1)"><rect fill="#ffeaad" stroke="none" x="1240" y="767" width="751" height="120"/></g><g transform="translate(-110,-670) scale(1,1)"><path fill="none" stroke="#000000" d="M 1240 767 L 1991 767 L 1991 887 L 1240 887 L 1240 767 Z Z" stroke-miterlimit="10"/></g><g transform="translate(-110,-670) scale(1,1)"><rect fill="#ffeaad" stroke="none" x="1240" y="752" width="300.4000000000001" height="15"/></g><g transform="translate(-110,-670) scale(1,1)"><path fill="none" stroke="#000000" d="M 1240 752 L 1540.4 752 L 1540.4 767 L 1240 767 L 1240 752 Z Z" stroke-miterlimit="10"/></g><g transform="translate(-110,-670) scale(1,1)"><rect fill="#ffeaad" stroke="none" x="1240" y="766" width="751" height="121"/></g><g transform="translate(-110,-670) scale(1,1)"><path fill="none" stroke="#000000" d="M 1240 766 L 1991 766 L 1991 887 L 1240 887 L 1240 766 Z Z" stroke-miterlimit="10"/></g><g transform="translate(-110,-670) scale(1,1)"><g><path fill="none" stroke="none"/><text fill="#000000" stroke="none" font-family="Arial" font-size="13px" font-style="normal" font-weight="bold" text-decoration="none" x="1596.7109375" y="786.5">Spring</text></g></g><g transform="translate(-110,-670) scale(1,1)"><path fill="none" stroke="#000000" d="M 1033 1216 L 1295 1214" stroke-miterlimit="10"/></g><g transform="translate(-110,-670) scale(1,1)"><path fill="none" stroke="#000000" d="M 1284.869754014542 1218.2869705240546 L 1295 1214 L 1284.805488440289 1209.8681802969008" stroke-miterlimit="10"/></g><g transform="translate(-110,-670) scale(1,1)"><g><path fill="none" stroke="none"/><text fill="#000000" stroke="none" font-family="Arial" font-size="13px" font-style="normal" font-weight="normal" text-decoration="none" x="1089.5" y="1206.5">+accountingManagement</text></g></g><g transform="translate(-110,-670) scale(1,1)"><rect fill="#C0C0C0" stroke="none" x="1279" y="839" width="80" height="32" opacity="0.2"/></g><g transform="translate(-110,-670) scale(1,1)"><rect fill="#ffffff" stroke="none" x="1272" y="832" width="80" height="32"/></g><g transform="translate(-110,-670) scale(1,1)"><path fill="none" stroke="#000000" d="M 1272 832 L 1352 832 L 1352 864 L 1272 864 L 1272 832 Z Z" stroke-miterlimit="10"/></g><g transform="translate(-110,-670) scale(1,1)"><rect fill="#ffffff" stroke="none" x="1272" y="832" width="80" height="32"/></g><g transform="translate(-110,-670) scale(1,1)"><path fill="none" stroke="#000000" d="M 1272 832 L 1352 832 L 1352 864 L 1272 864 L 1272 832 Z Z" stroke-miterlimit="10"/></g><g transform="translate(-110,-670) scale(1,1)"><g><path fill="none" stroke="none"/><text fill="#000000" stroke="none" font-family="Arial" font-size="13px" font-style="normal" font-weight="bold" text-decoration="none" x="1294.29638671875" y="851.5">Model</text><path fill="none" stroke="#000000" d="M 1330.7763671875 851.5 L 1293.2236328125 851.5" stroke-miterlimit="10"/></g></g><g transform="translate(-110,-670) scale(1,1)"><rect fill="#C0C0C0" stroke="none" x="1407" y="839" width="113.0908203125" height="33" opacity="0.2"/></g><g transform="translate(-110,-670) scale(1,1)"><rect fill="#ffffff" stroke="none" x="1400" y="832" width="113.0908203125" height="33"/></g><g transform="translate(-110,-670) scale(1,1)"><path fill="none" stroke="#000000" d="M 1400 832 L 1513.0908203125 832 L 1513.0908203125 865 L 1400 865 L 1400 832 Z Z" stroke-miterlimit="10"/></g><g transform="translate(-110,-670) scale(1,1)"><rect fill="#ffffff" stroke="none" x="1400" y="832" width="113.0908203125" height="33"/></g><g transform="translate(-110,-670) scale(1,1)"><path fill="none" stroke="#000000" d="M 1400 832 L 1513.0908203125 832 L 1513.0908203125 865 L 1400 865 L 1400 832 Z Z" stroke-miterlimit="10"/></g><g transform="translate(-110,-670) scale(1,1)"><g><path fill="none" stroke="none"/><text fill="#000000" stroke="none" font-family="Arial" font-size="13px" font-style="normal" font-weight="bold" text-decoration="none" x="1423.305908203125" y="851.5">Streamable</text><path fill="none" stroke="#000000" d="M 1491.5908203125 851.5 L 1421.5 851.5" stroke-miterlimit="10"/></g></g><g transform="translate(-110,-670) scale(1,1)"><path fill="none" stroke="#000000" d="M 849 1039 L 984 920 L 1312 920 L 1312 865" stroke-miterlimit="10" stroke-dasharray="3"/></g><g transform="translate(-110,-670) scale(1,1)"><path fill="none" stroke="#000000" d="M 1456 866 L 1456 920 L 1600 920 L 1600 1031" stroke-miterlimit="10" stroke-dasharray="3"/></g><g transform="translate(-110,-670) scale(1,1)"><rect fill="#C0C0C0" stroke="none" x="207" y="1487" width="134" height="15" opacity="0.2"/></g><g transform="translate(-110,-670) scale(1,1)"><rect fill="#C0C0C0" stroke="none" x="207" y="1501" width="335" height="113" opacity="0.2"/></g><g transform="translate(-110,-670) scale(1,1)"><rect fill="#ffffff" stroke="none" x="200" y="1495" width="335" height="112"/></g><g transform="translate(-110,-670) scale(1,1)"><path fill="none" stroke="#000000" d="M 200 1495 L 535 1495 L 535 1607 L 200 1607 L 200 1495 Z Z" stroke-miterlimit="10"/></g><g transform="translate(-110,-670) scale(1,1)"><rect fill="#ffffff" stroke="none" x="200" y="1480" width="134" height="15"/></g><g transform="translate(-110,-670) scale(1,1)"><path fill="none" stroke="#000000" d="M 200 1480 L 334 1480 L 334 1495 L 200 1495 L 200 1480 Z Z" stroke-miterlimit="10"/></g><g transform="translate(-110,-670) scale(1,1)"><rect fill="#ffffff" stroke="none" x="200" y="1494" width="335" height="113"/></g><g transform="translate(-110,-670) scale(1,1)"><path fill="none" stroke="#000000" d="M 200 1494 L 535 1494 L 535 1607 L 200 1607 L 200 1494 Z Z" stroke-miterlimit="10"/></g><g transform="translate(-110,-670) scale(1,1)"><g><path fill="none" stroke="none"/><text fill="#000000" stroke="none" font-family="Arial" font-size="13px" font-style="normal" font-weight="bold" text-decoration="none" x="334.260498046875" y="1514.5">JavaMoney</text></g></g><g transform="translate(-110,-670) scale(1,1)"><rect fill="#C0C0C0" stroke="none" x="247" y="1543" width="168" height="44" opacity="0.2"/></g><g transform="translate(-110,-670) scale(1,1)"><rect fill="#ffeaad" stroke="none" x="240" y="1536" width="168" height="44"/></g><g transform="translate(-110,-670) scale(1,1)"><path fill="none" stroke="#000000" d="M 240 1536 L 408 1536 L 408 1580 L 240 1580 L 240 1536 Z Z" stroke-miterlimit="10"/></g><g transform="translate(-110,-670) scale(1,1)"><path fill="none" stroke="#000000" d="M 240 1561 L 408 1561" stroke-miterlimit="10"/></g><g transform="translate(-110,-670) scale(1,1)"><path fill="none" stroke="#000000" d="M 240 1571 L 408 1571" stroke-miterlimit="10"/></g><g transform="translate(-110,-670) scale(1,1)"><g><path fill="none" stroke="none"/><text fill="#000000" stroke="none" font-family="Arial" font-size="13px" font-style="normal" font-weight="bold" text-decoration="none" x="274.504150390625" y="1555.5">MonetaryAmount</text></g></g><g transform="translate(-110,-670) scale(1,1)"><path fill="none" stroke="#000000" d="M 1600 1392 L 1600 1560 L 409 1558" stroke-miterlimit="10" stroke-dasharray="3"/></g><g transform="translate(-110,-670) scale(1,1)"><g><path fill="none" stroke="none"/><text fill="#000000" stroke="none" font-family="Arial" font-size="13px" font-style="normal" font-weight="normal" text-decoration="none" x="1029" y="1578">use</text></g></g><g transform="translate(-110,-670) scale(1,1)"><rect fill="#C0C0C0" stroke="none" x="295" y="831" width="151" height="32" opacity="0.2"/></g><g transform="translate(-110,-670) scale(1,1)"><rect fill="#ffffff" stroke="none" x="288" y="824" width="151" height="32"/></g><g transform="translate(-110,-670) scale(1,1)"><path fill="none" stroke="#000000" d="M 288 824 L 439 824 L 439 856 L 288 856 L 288 824 Z Z" stroke-miterlimit="10"/></g><g transform="translate(-110,-670) scale(1,1)"><g><path fill="none" stroke="none"/><text fill="#000000" stroke="none" font-family="Arial" font-size="13px" font-style="normal" font-weight="bold" text-decoration="none" x="346.885009765625" y="843.5">Order</text></g></g><g transform="translate(-110,-670) scale(1,1)"><rect fill="#C0C0C0" stroke="none" x="679" y="831" width="143" height="32" opacity="0.2"/></g><g transform="translate(-110,-670) scale(1,1)"><rect fill="#ffffff" stroke="none" x="672" y="824" width="143" height="32"/></g><g transform="translate(-110,-670) scale(1,1)"><path fill="none" stroke="#000000" d="M 672 824 L 815 824 L 815 856 L 672 856 L 672 824 Z Z" stroke-miterlimit="10"/></g><g transform="translate(-110,-670) scale(1,1)"><g><path fill="none" stroke="none"/><text fill="#000000" stroke="none" font-family="Arial" font-size="13px" font-style="normal" font-weight="bold" text-decoration="none" x="707.004150390625" y="843.5">accountancy</text></g></g><g transform="translate(-110,-670) scale(1,1)"><path fill="none" stroke="#000000" d="M 392 1039 L 360 1016 L 363 857" stroke-miterlimit="10"/></g><g transform="translate(-110,-670) scale(1,1)"><path fill="none" stroke="#000000" d="M 367.0170542046347 867.240277121105 L 363 857 L 358.5995168749283 867.0814556620539" stroke-miterlimit="10"/></g><g transform="translate(-110,-670) scale(1,1)"><path fill="none" stroke="#000000" d="M 1593 1031 L 1592 992 L 744 992 L 743 857" stroke-miterlimit="10"/></g><g transform="translate(-110,-670) scale(1,1)"><path fill="none" stroke="#000000" d="M 747.2846792811476 867.1312153001358 L 743 857 L 738.8658747345222 867.1935768152958" stroke-miterlimit="10"/></g><g transform="translate(-110,-670) scale(1,1)"><path fill="none" stroke="#000000" d="M 1467 1031 L 1408 952 L 1312 952 L 1312 865" stroke-miterlimit="10" stroke-dasharray="3"/></g><g transform="translate(-110,-670) scale(1,1)"><rect fill="#C0C0C0" stroke="none" x="1551" y="839" width="119" height="32" opacity="0.2"/></g><g transform="translate(-110,-670) scale(1,1)"><rect fill="#ffffff" stroke="none" x="1544" y="832" width="119" height="32"/></g><g transform="translate(-110,-670) scale(1,1)"><path fill="none" stroke="#000000" d="M 1544 832 L 1663 832 L 1663 864 L 1544 864 L 1544 832 Z Z" stroke-miterlimit="10"/></g><g transform="translate(-110,-670) scale(1,1)"><g><path fill="none" stroke="none"/><text fill="#000000" stroke="none" font-family="Arial" font-size="13px" font-style="normal" font-weight="bold" text-decoration="none" x="1585.0791015625" y="851.5">Assert</text></g></g><g transform="translate(-110,-670) scale(1,1)"><path fill="none" stroke="#000000" d="M 872 1039 L 992 944 L 1520 944 L 1600 904 L 1602 865" stroke-miterlimit="10" stroke-dasharray="3"/></g></g></svg>