<svg version="1.1" xmlns="http://www.w3.org/2000/svg" xmlns:xlink="http://www.w3.org/1999/xlink" width="1564" height="740" style="background-color: white;"><defs/><g><g transform="translate(2,10) scale(1,1)"><path fill="none" stroke="#000000" d="M 8 0 L 1552 0 L 1552 720 L 8 720 L 8 0" stroke-miterlimit="10"/></g><g transform="translate(2,10) scale(1,1)"><path fill="#ffffff" stroke="none" d="M 8 0 L 8 22 L 107.09716796875 22 L 118.09716796875 11 L 118.09716796875 0 L 8 0"/></g><g transform="translate(2,10) scale(1,1)"><path fill="none" stroke="#000000" d="M 8 0 L 8 22 L 107.09716796875 22 L 118.09716796875 11 L 118.09716796875 0 L 8 0 L 8 0" stroke-miterlimit="10"/></g><g transform="translate(2,10) scale(1,1)"><g><path fill="none" stroke="none"/><text fill="#000000" stroke="none" font-family="Arial" font-size="13px" font-style="normal" font-weight="normal" text-decoration="none" x="32.72998046875" y="17.5">printReceipt</text></g></g><g transform="translate(2,10) scale(1,1)"><g><path fill="none" stroke="none"/><text fill="#000000" stroke="none" font-family="Arial" font-size="13px" font-style="normal" font-weight="bold" text-decoration="none" x="13" y="17.5">sd</text></g></g><g transform="translate(2,10) scale(1,1)"><rect fill="#C0C0C0" stroke="none" x="135" y="47" width="71.736328125" height="39" opacity="0.2"/></g><g transform="translate(2,10) scale(1,1)"><rect fill="#ffffff" stroke="none" x="128" y="40" width="71.736328125" height="39"/></g><g transform="translate(2,10) scale(1,1)"><path fill="none" stroke="#000000" d="M 128 40 L 199.736328125 40 L 199.736328125 79 L 128 79 L 128 40 Z Z" stroke-miterlimit="10"/></g><g transform="translate(2,10) scale(1,1)"><g><path fill="none" stroke="none"/><text fill="#000000" stroke="none" font-family="Arial" font-size="13px" font-style="normal" font-weight="bold" text-decoration="none" x="150.14453125" y="59.5">User</text></g></g><g transform="translate(2,10) scale(1,1)"><path fill="none" stroke="#000000" d="M 164.5 80 L 164.5 688" stroke-miterlimit="10" stroke-dasharray="3"/></g><g transform="translate(2,10) scale(1,1)"><rect fill="#C0C0C0" stroke="none" x="383" y="47" width="71.736328125" height="39" opacity="0.2"/></g><g transform="translate(2,10) scale(1,1)"><rect fill="#ffffff" stroke="none" x="376" y="40" width="71.736328125" height="39"/></g><g transform="translate(2,10) scale(1,1)"><path fill="none" stroke="#000000" d="M 376 40 L 447.736328125 40 L 447.736328125 79 L 376 79 L 376 40 Z Z" stroke-miterlimit="10"/></g><g transform="translate(2,10) scale(1,1)"><g><path fill="none" stroke="none"/><text fill="#000000" stroke="none" font-family="Arial" font-size="13px" font-style="normal" font-weight="bold" text-decoration="none" x="390.908203125" y="59.5">catalog</text></g></g><g transform="translate(2,10) scale(1,1)"><path fill="none" stroke="#000000" d="M 412.5 80 L 412.5 664" stroke-miterlimit="10" stroke-dasharray="3"/></g><g transform="translate(2,10) scale(1,1)"><rect fill="#C0C0C0" stroke="none" x="863" y="47" width="84.736328125" height="39" opacity="0.2"/></g><g transform="translate(2,10) scale(1,1)"><rect fill="#ffffff" stroke="none" x="856" y="40" width="84.736328125" height="39"/></g><g transform="translate(2,10) scale(1,1)"><path fill="none" stroke="#000000" d="M 856 40 L 940.736328125 40 L 940.736328125 79 L 856 79 L 856 40 Z Z" stroke-miterlimit="10"/></g><g transform="translate(2,10) scale(1,1)"><g><path fill="none" stroke="none"/><text fill="#000000" stroke="none" font-family="Arial" font-size="13px" font-style="normal" font-weight="bold" text-decoration="none" x="868.013671875" y="59.5">Salespoint</text></g></g><g transform="translate(2,10) scale(1,1)"><path fill="none" stroke="#000000" d="M 899.5 80 L 899.5 664" stroke-miterlimit="10" stroke-dasharray="3"/></g><g transform="translate(2,10) scale(1,1)"><rect fill="#C0C0C0" stroke="none" x="623" y="47" width="71.736328125" height="39" opacity="0.2"/></g><g transform="translate(2,10) scale(1,1)"><rect fill="#ffffff" stroke="none" x="616" y="40" width="71.736328125" height="39"/></g><g transform="translate(2,10) scale(1,1)"><path fill="none" stroke="#000000" d="M 616 40 L 687.736328125 40 L 687.736328125 79 L 616 79 L 616 40 Z Z" stroke-miterlimit="10"/></g><g transform="translate(2,10) scale(1,1)"><g><path fill="none" stroke="none"/><text fill="#000000" stroke="none" font-family="Arial" font-size="13px" font-style="normal" font-weight="bold" text-decoration="none" x="641.03271484375" y="59.5">cart</text></g></g><g transform="translate(2,10) scale(1,1)"><path fill="none" stroke="#000000" d="M 652.5 80 L 652.5 680" stroke-miterlimit="10" stroke-dasharray="3"/></g><g transform="translate(2,10) scale(1,1)"><rect fill="#C0C0C0" stroke="none" x="1327" y="47" width="88.33544921875" height="39" opacity="0.2"/></g><g transform="translate(2,10) scale(1,1)"><rect fill="#ffffff" stroke="none" x="1320" y="40" width="88.33544921875" height="39"/></g><g transform="translate(2,10) scale(1,1)"><path fill="none" stroke="#000000" d="M 1320 40 L 1408.33544921875 40 L 1408.33544921875 79 L 1320 79 L 1320 40 Z Z" stroke-miterlimit="10"/></g><g transform="translate(2,10) scale(1,1)"><g><path fill="none" stroke="none"/><text fill="#000000" stroke="none" font-family="Arial" font-size="13px" font-style="normal" font-weight="bold" text-decoration="none" x="1332.727783203125" y="59.5">accounting</text></g></g><g transform="translate(2,10) scale(1,1)"><path fill="none" stroke="#000000" d="M 1365.5 80 L 1365.5 664" stroke-miterlimit="10" stroke-dasharray="3"/></g><g transform="translate(2,10) scale(1,1)"><rect fill="#C0C0C0" stroke="none" x="1111" y="47" width="77.5126953125" height="39" opacity="0.2"/></g><g transform="translate(2,10) scale(1,1)"><rect fill="#ffffff" stroke="none" x="1104" y="40" width="77.5126953125" height="39"/></g><g transform="translate(2,10) scale(1,1)"><path fill="none" stroke="#000000" d="M 1104 40 L 1181.5126953125 40 L 1181.5126953125 79 L 1104 79 L 1104 40 Z Z" stroke-miterlimit="10"/></g><g transform="translate(2,10) scale(1,1)"><g><path fill="none" stroke="none"/><text fill="#000000" stroke="none" font-family="Arial" font-size="13px" font-style="normal" font-weight="bold" text-decoration="none" x="1116.3818359375" y="59.5">inventory</text></g></g><g transform="translate(2,10) scale(1,1)"><path fill="none" stroke="#000000" d="M 1143.5 80 L 1143.5 680" stroke-miterlimit="10" stroke-dasharray="3"/></g><g transform="translate(2,10) scale(1,1)"><path fill="none" stroke="#000000" d="M 652 112 L 892 112" stroke-miterlimit="10"/></g><g transform="translate(2,10) scale(1,1)"><path fill="#000000" stroke="none" d="M 881.8373251423759 116.20951775601598 L 892 112 L 881.8373251423758 107.79048224398402"/></g><g transform="translate(2,10) scale(1,1)"><path fill="none" stroke="#000000" d="M 881.8373251423759 116.20951775601598 L 892 112 L 881.8373251423758 107.79048224398402 L 881.8373251423759 116.20951775601598" stroke-miterlimit="10"/></g><g transform="translate(2,10) scale(1,1)"><g><path fill="none" stroke="none"/><text fill="#000000" stroke="none" font-family="Arial" font-size="13px" font-style="normal" font-weight="normal" text-decoration="none" x="727.5" y="108.5">1 : initializeCart</text></g></g><g transform="translate(2,10) scale(1,1)"><rect fill="#ffffff" stroke="none" x="892" y="112" width="13" height="28"/></g><g transform="translate(2,10) scale(1,1)"><path fill="none" stroke="#000000" d="M 892 112 L 905 112 L 905 140 L 892 140 L 892 112 Z Z" stroke-miterlimit="10"/></g><g transform="translate(2,10) scale(1,1)"><path fill="none" stroke="#000000" d="M 892 137 L 652 137" stroke-miterlimit="10" stroke-dasharray="3"/></g><g transform="translate(2,10) scale(1,1)"><path fill="none" stroke="#000000" d="M 662.1626748576241 132.790482243984 L 652 137 L 662.1626748576241 141.209517756016" stroke-miterlimit="10"/></g><g transform="translate(2,10) scale(1,1)"><g><path fill="none" stroke="none"/><text fill="#000000" stroke="none" font-family="Arial" font-size="13px" font-style="normal" font-weight="normal" text-decoration="none" x="749.5" y="153.5">2 : Cart</text></g></g><g transform="translate(2,10) scale(1,1)"><path fill="none" stroke="#000000" d="M 164 200 L 405 200" stroke-miterlimit="10"/></g><g transform="translate(2,10) scale(1,1)"><path fill="#000000" stroke="none" d="M 394.83732514237585 204.209517756016 L 405 200 L 394.83732514237585 195.790482243984"/></g><g transform="translate(2,10) scale(1,1)"><path fill="none" stroke="#000000" d="M 394.83732514237585 204.209517756016 L 405 200 L 394.83732514237585 195.790482243984 L 394.83732514237585 204.209517756016" stroke-miterlimit="10"/></g><g transform="translate(2,10) scale(1,1)"><g><path fill="none" stroke="none"/><text fill="#000000" stroke="none" font-family="Arial" font-size="13px" font-style="normal" font-weight="normal" text-decoration="none" x="239.5" y="196.5">3 : viewCatalog</text></g></g><g transform="translate(2,10) scale(1,1)"><rect fill="#ffffff" stroke="none" x="405" y="200" width="13" height="72"/></g><g transform="translate(2,10) scale(1,1)"><path fill="none" stroke="#000000" d="M 405 200 L 418 200 L 418 272 L 405 272 L 405 200 Z Z" stroke-miterlimit="10"/></g><g transform="translate(2,10) scale(1,1)"><path fill="none" stroke="#000000" d="M 418 216 L 1136 216" stroke-miterlimit="10"/></g><g transform="translate(2,10) scale(1,1)"><path fill="#000000" stroke="none" d="M 1125.837325142376 220.209517756016 L 1136 216 L 1125.837325142376 211.790482243984"/></g><g transform="translate(2,10) scale(1,1)"><path fill="none" stroke="#000000" d="M 1125.837325142376 220.209517756016 L 1136 216 L 1125.837325142376 211.790482243984 L 1125.837325142376 220.209517756016" stroke-miterlimit="10"/></g><g transform="translate(2,10) scale(1,1)"><g><path fill="none" stroke="none"/><text fill="#000000" stroke="none" font-family="Arial" font-size="13px" font-style="normal" font-weight="normal" text-decoration="none" x="722.5" y="212.5">4 : inventory findAll</text></g></g><g transform="translate(2,10) scale(1,1)"><rect fill="#ffffff" stroke="none" x="1136" y="216" width="13" height="28"/></g><g transform="translate(2,10) scale(1,1)"><path fill="none" stroke="#000000" d="M 1136 216 L 1149 216 L 1149 244 L 1136 244 L 1136 216 Z Z" stroke-miterlimit="10"/></g><g transform="translate(2,10) scale(1,1)"><path fill="none" stroke="#000000" d="M 1136 240 L 418 240" stroke-miterlimit="10" stroke-dasharray="3"/></g><g transform="translate(2,10) scale(1,1)"><path fill="none" stroke="#000000" d="M 428.16267485762415 235.790482243984 L 418 240 L 428.16267485762415 244.209517756016" stroke-miterlimit="10"/></g><g transform="translate(2,10) scale(1,1)"><g><path fill="none" stroke="none"/><text fill="#000000" stroke="none" font-family="Arial" font-size="13px" font-style="normal" font-weight="normal" text-decoration="none" x="740.5" y="256.5">5 : inventory</text></g></g><g transform="translate(2,10) scale(1,1)"><path fill="none" stroke="#000000" d="M 405 266 L 164 266" stroke-miterlimit="10" stroke-dasharray="3"/></g><g transform="translate(2,10) scale(1,1)"><path fill="none" stroke="#000000" d="M 174.16267485762415 261.790482243984 L 164 266 L 174.16267485762415 270.209517756016" stroke-miterlimit="10"/></g><g transform="translate(2,10) scale(1,1)"><g><path fill="none" stroke="none"/><text fill="#000000" stroke="none" font-family="Arial" font-size="13px" font-style="normal" font-weight="normal" text-decoration="none" x="266.5" y="281.5">6 : </text></g></g><g transform="translate(2,10) scale(1,1)"><path fill="none" stroke="#000000" d="M 164 320 L 645 320" stroke-miterlimit="10"/></g><g transform="translate(2,10) scale(1,1)"><path fill="#000000" stroke="none" d="M 634.8373251423759 324.209517756016 L 645 320 L 634.8373251423758 315.790482243984"/></g><g transform="translate(2,10) scale(1,1)"><path fill="none" stroke="#000000" d="M 634.8373251423759 324.209517756016 L 645 320 L 634.8373251423758 315.790482243984 L 634.8373251423759 324.209517756016" stroke-miterlimit="10"/></g><g transform="translate(2,10) scale(1,1)"><g><path fill="none" stroke="none"/><text fill="#000000" stroke="none" font-family="Arial" font-size="13px" font-style="normal" font-weight="normal" text-decoration="none" x="318.5" y="315.5">7 : addProduct</text></g></g><g transform="translate(2,10) scale(1,1)"><rect fill="#ffffff" stroke="none" x="645" y="320" width="13" height="28"/></g><g transform="translate(2,10) scale(1,1)"><path fill="none" stroke="#000000" d="M 645 320 L 658 320 L 658 348 L 645 348 L 645 320 Z Z" stroke-miterlimit="10"/></g><g transform="translate(2,10) scale(1,1)"><path fill="none" stroke="#000000" d="M 645 347 L 164 347" stroke-miterlimit="10" stroke-dasharray="3"/></g><g transform="translate(2,10) scale(1,1)"><path fill="none" stroke="#000000" d="M 174.16267485762415 342.790482243984 L 164 347 L 174.16267485762415 351.209517756016" stroke-miterlimit="10"/></g><g transform="translate(2,10) scale(1,1)"><g><path fill="none" stroke="none"/><text fill="#000000" stroke="none" font-family="Arial" font-size="13px" font-style="normal" font-weight="normal" text-decoration="none" x="303.5" y="363.5">8 : product added</text></g></g><g transform="translate(2,10) scale(1,1)"><path fill="none" stroke="#000000" d="M 164 408 L 645 408" stroke-miterlimit="10"/></g><g transform="translate(2,10) scale(1,1)"><path fill="#000000" stroke="none" d="M 634.8373251423759 412.209517756016 L 645 408 L 634.8373251423758 403.790482243984"/></g><g transform="translate(2,10) scale(1,1)"><path fill="none" stroke="#000000" d="M 634.8373251423759 412.209517756016 L 645 408 L 634.8373251423758 403.790482243984 L 634.8373251423759 412.209517756016" stroke-miterlimit="10"/></g><g transform="translate(2,10) scale(1,1)"><g><path fill="none" stroke="none"/><text fill="#000000" stroke="none" font-family="Arial" font-size="13px" font-style="normal" font-weight="normal" text-decoration="none" x="330.4736328125" y="403.5">9 : checkout</text></g></g><g transform="translate(2,10) scale(1,1)"><rect fill="#ffffff" stroke="none" x="645" y="408" width="13" height="28"/></g><g transform="translate(2,10) scale(1,1)"><path fill="none" stroke="#000000" d="M 645 408 L 658 408 L 658 436 L 645 436 L 645 408 Z Z" stroke-miterlimit="10"/></g><g transform="translate(2,10) scale(1,1)"><path fill="none" stroke="#000000" d="M 658 432 L 688 432 L 688 452 L 658 452" stroke-miterlimit="10"/></g><g transform="translate(2,10) scale(1,1)"><path fill="#000000" stroke="none" d="M 668.1626748576241 447.790482243984 L 658 452 L 668.1626748576241 456.209517756016"/></g><g transform="translate(2,10) scale(1,1)"><path fill="none" stroke="#000000" d="M 668.1626748576241 447.790482243984 L 658 452 L 668.1626748576241 456.209517756016 L 668.1626748576241 447.790482243984" stroke-miterlimit="10"/></g><g transform="translate(2,10) scale(1,1)"><g><path fill="none" stroke="none"/><text fill="#000000" stroke="none" font-family="Arial" font-size="13px" font-style="normal" font-weight="normal" text-decoration="none" x="690.5" y="447.5">10 : createOrder</text></g></g><g transform="translate(2,10) scale(1,1)"><rect fill="#ffffff" stroke="none" x="645" y="452" width="13" height="31"/></g><g transform="translate(2,10) scale(1,1)"><path fill="none" stroke="#000000" d="M 645 452 L 658 452 L 658 483 L 645 483 L 645 452 Z Z" stroke-miterlimit="10"/></g><g transform="translate(2,10) scale(1,1)"><path fill="none" stroke="#000000" d="M 658 480 L 688 480 L 688 500 L 658 500" stroke-miterlimit="10"/></g><g transform="translate(2,10) scale(1,1)"><path fill="#000000" stroke="none" d="M 668.1626748576241 495.790482243984 L 658 500 L 668.1626748576241 504.209517756016"/></g><g transform="translate(2,10) scale(1,1)"><path fill="none" stroke="#000000" d="M 668.1626748576241 495.790482243984 L 658 500 L 668.1626748576241 504.209517756016 L 668.1626748576241 495.790482243984" stroke-miterlimit="10"/></g><g transform="translate(2,10) scale(1,1)"><g><path fill="none" stroke="none"/><text fill="#000000" stroke="none" font-family="Arial" font-size="13px" font-style="normal" font-weight="normal" text-decoration="none" x="694.5" y="495.5">11 : completeOrder</text></g></g><g transform="translate(2,10) scale(1,1)"><rect fill="#ffffff" stroke="none" x="645" y="500" width="13" height="28"/></g><g transform="translate(2,10) scale(1,1)"><path fill="none" stroke="#000000" d="M 645 500 L 658 500 L 658 528 L 645 528 L 645 500 Z Z" stroke-miterlimit="10"/></g><g transform="translate(2,10) scale(1,1)"><path fill="none" stroke="#000000" d="M 652 528 L 164 528" stroke-miterlimit="10" stroke-dasharray="3"/></g><g transform="translate(2,10) scale(1,1)"><path fill="none" stroke="#000000" d="M 174.16267485762415 523.790482243984 L 164 528 L 174.16267485762415 532.209517756016" stroke-miterlimit="10"/></g><g transform="translate(2,10) scale(1,1)"><g><path fill="none" stroke="none"/><text fill="#000000" stroke="none" font-family="Arial" font-size="13px" font-style="normal" font-weight="normal" text-decoration="none" x="318.5" y="544.5">12 : clearCart</text></g></g><g transform="translate(2,10) scale(1,1)"><path fill="none" stroke="#000000" d="M 164 560 L 1358 560" stroke-miterlimit="10"/></g><g transform="translate(2,10) scale(1,1)"><path fill="#000000" stroke="none" d="M 1347.837325142376 564.209517756016 L 1358 560 L 1347.837325142376 555.790482243984"/></g><g transform="translate(2,10) scale(1,1)"><path fill="none" stroke="#000000" d="M 1347.837325142376 564.209517756016 L 1358 560 L 1347.837325142376 555.790482243984 L 1347.837325142376 564.209517756016" stroke-miterlimit="10"/></g><g transform="translate(2,10) scale(1,1)"><g><path fill="none" stroke="none"/><text fill="#000000" stroke="none" font-family="Arial" font-size="13px" font-style="normal" font-weight="normal" text-decoration="none" x="713.5" y="556.5">13 : printReceipt</text></g></g><g transform="translate(2,10) scale(1,1)"><rect fill="#ffffff" stroke="none" x="1358" y="560" width="13" height="28"/></g><g transform="translate(2,10) scale(1,1)"><path fill="none" stroke="#000000" d="M 1358 560 L 1371 560 L 1371 588 L 1358 588 L 1358 560 Z Z" stroke-miterlimit="10"/></g><g transform="translate(2,10) scale(1,1)"><path fill="none" stroke="#000000" d="M 1358 587 L 164 587" stroke-miterlimit="10" stroke-dasharray="3"/></g><g transform="translate(2,10) scale(1,1)"><path fill="none" stroke="#000000" d="M 174.16267485762415 582.790482243984 L 164 587 L 174.16267485762415 591.209517756016" stroke-miterlimit="10"/></g><g transform="translate(2,10) scale(1,1)"><g><path fill="none" stroke="none"/><text fill="#000000" stroke="none" font-family="Arial" font-size="13px" font-style="normal" font-weight="normal" text-decoration="none" x="727.5" y="603.5">14 : receipt</text></g></g></g></svg>