<svg version="1.1" xmlns="http://www.w3.org/2000/svg" xmlns:xlink="http://www.w3.org/1999/xlink" width="468" height="316" style="background: white"><defs/><g><g transform="translate(2,2) scale(1,1)"><path fill="none" stroke="#000000" d="M 8 8 L 456 8 L 456 304 L 8 304 L 8 8" stroke-miterlimit="10"/></g><g transform="translate(2,2) scale(1,1)"><path fill="#ffffff" stroke="none" d="M 8 8 L 8 30 L 174.3125 30 L 185.3125 19 L 185.3125 8 L 8 8"/></g><g transform="translate(2,2) scale(1,1)"><path fill="none" stroke="#000000" d="M 8 8 L 8 30 L 174.3125 30 L 185.3125 19 L 185.3125 8 L 8 8 L 8 8" stroke-miterlimit="10"/></g><g transform="translate(2,2) scale(1,1)"><g><path fill="none" stroke="none"/><text fill="#000000" stroke="none" font-family="Arial" font-size="13px" font-style="normal" font-weight="normal" text-decoration="none" x="32.72998046875" y="25.5">UC 0600  Total Balance</text></g></g><g transform="translate(2,2) scale(1,1)"><g><path fill="none" stroke="none"/><text fill="#000000" stroke="none" font-family="Arial" font-size="13px" font-style="normal" font-weight="bold" text-decoration="none" x="13" y="25.5">sd</text></g></g><g transform="translate(2,2) scale(1,1)"><path fill="#ffffff" stroke="none" d="M 111.1395126065341 47.3 C 111.1395126065341 43.82060576 114.01791432871592 41 117.568603515625 41 C 121.11929270253408 41 123.9976944247159 43.82060576 123.9976944247159 47.3 C 123.9976944247159 50.779394239999995 121.11929270253408 53.6 117.568603515625 53.6 C 114.01791432871592 53.6 111.1395126065341 50.779394239999995 111.1395126065341 47.3 Z"/></g><g transform="translate(2,2) scale(1,1)"><path fill="none" stroke="#000000" d="M 111.1395126065341 47.3 C 111.1395126065341 43.82060576 114.01791432871592 41 117.568603515625 41 C 121.11929270253408 41 123.9976944247159 43.82060576 123.9976944247159 47.3 C 123.9976944247159 50.779394239999995 121.11929270253408 53.6 117.568603515625 53.6 C 114.01791432871592 53.6 111.1395126065341 50.779394239999995 111.1395126065341 47.3 Z" stroke-miterlimit="10"/></g><g transform="translate(2,2) scale(1,1)"><path fill="none" stroke="#000000" d="M 117.568603515625 53.6 L 117.568603515625 66.4" stroke-miterlimit="10"/></g><g transform="translate(2,2) scale(1,1)"><path fill="none" stroke="#000000" d="M 110.76133078835227 58.4 L 124.37587624289773 58.4" stroke-miterlimit="10"/></g><g transform="translate(2,2) scale(1,1)"><path fill="none" stroke="#000000" d="M 117.568603515625 66.4 L 108.11405806107955 79" stroke-miterlimit="10"/></g><g transform="translate(2,2) scale(1,1)"><path fill="none" stroke="#000000" d="M 117.568603515625 66.4 L 127.02314897017045 79" stroke-miterlimit="10"/></g><g transform="translate(2,2) scale(1,1)"><g><path fill="none" stroke="none"/><text fill="#000000" stroke="none" font-family="Arial" font-size="13px" font-style="normal" font-weight="bold" text-decoration="none" x="88.302734375" y="99.5">: Manager</text></g></g><g transform="translate(2,2) scale(1,1)"><path fill="none" stroke="#000000" d="M 118.5 105 L 118.5 264" stroke-miterlimit="10" stroke-dasharray="3"/></g><g transform="translate(2,2) scale(1,1)"><rect fill="#C0C0C0" stroke="none" x="287" y="47" width="88.33544921875" height="39" opacity="0.2"/></g><g transform="translate(2,2) scale(1,1)"><rect fill="#ffffff" stroke="none" x="280" y="40" width="88.33544921875" height="39"/></g><g transform="translate(2,2) scale(1,1)"><path fill="none" stroke="#000000" d="M 280 40 L 368.33544921875 40 L 368.33544921875 79 L 280 79 L 280 40 Z Z" stroke-miterlimit="10"/></g><g transform="translate(2,2) scale(1,1)"><g><path fill="none" stroke="none"/><text fill="#000000" stroke="none" font-family="Arial" font-size="13px" font-style="normal" font-weight="bold" text-decoration="none" x="292.727783203125" y="59.5">accounting</text></g></g><g transform="translate(2,2) scale(1,1)"><path fill="none" stroke="#000000" d="M 325.5 80 L 325.5 272" stroke-miterlimit="10" stroke-dasharray="3"/></g><g transform="translate(2,2) scale(1,1)"><path fill="none" stroke="#000000" d="M 118 138 L 318 138" stroke-miterlimit="10"/></g><g transform="translate(2,2) scale(1,1)"><path fill="#000000" stroke="none" d="M 307.83732514237585 142.209517756016 L 318 138 L 307.83732514237585 133.790482243984"/></g><g transform="translate(2,2) scale(1,1)"><path fill="none" stroke="#000000" d="M 307.83732514237585 142.209517756016 L 318 138 L 307.83732514237585 133.790482243984 L 307.83732514237585 142.209517756016" stroke-miterlimit="10"/></g><g transform="translate(2,2) scale(1,1)"><g><path fill="none" stroke="none"/><text fill="#000000" stroke="none" font-family="Arial" font-size="13px" font-style="normal" font-weight="normal" text-decoration="none" x="168.5" y="134.5">1 : totalBalance()</text></g></g><g transform="translate(2,2) scale(1,1)"><rect fill="#ffffff" stroke="none" x="318" y="138" width="13" height="86"/></g><g transform="translate(2,2) scale(1,1)"><path fill="none" stroke="#000000" d="M 318 138 L 331 138 L 331 224 L 318 224 L 318 138 Z Z" stroke-miterlimit="10"/></g><g transform="translate(2,2) scale(1,1)"><path fill="none" stroke="#000000" d="M 318 216 L 118 216" stroke-miterlimit="10" stroke-dasharray="3"/></g><g transform="translate(2,2) scale(1,1)"><path fill="none" stroke="#000000" d="M 128.16267485762415 211.790482243984 L 118 216 L 128.16267485762415 220.209517756016" stroke-miterlimit="10"/></g><g transform="translate(2,2) scale(1,1)"><g><path fill="none" stroke="none"/><text fill="#000000" stroke="none" font-family="Arial" font-size="13px" font-style="normal" font-weight="normal" text-decoration="none" x="159.5" y="232.5">2 : displays balance</text></g></g></g></svg>