<svg version="1.1" xmlns="http://www.w3.org/2000/svg" xmlns:xlink="http://www.w3.org/1999/xlink" width="1708" height="1028" style="background: white"><defs/><g><g transform="translate(-38,-70) scale(1,1)"><rect fill="#C0C0C0" stroke="none" x="1559" y="319" width="183" height="119" opacity="0.2"/></g><g transform="translate(-38,-70) scale(1,1)"><rect fill="#00a9ff" stroke="none" x="1552" y="312" width="183" height="119"/></g><g transform="translate(-38,-70) scale(1,1)"><path fill="none" stroke="#000000" d="M 1552 312 L 1735 312 L 1735 431 L 1552 431 L 1552 312 Z Z" stroke-miterlimit="10"/></g><g transform="translate(-38,-70) scale(1,1)"><rect fill="#00a9ff" stroke="none" x="1552" y="312" width="183" height="119"/></g><g transform="translate(-38,-70) scale(1,1)"><path fill="none" stroke="#000000" d="M 1552 312 L 1735 312 L 1735 431 L 1552 431 L 1552 312 Z Z" stroke-miterlimit="10"/></g><g transform="translate(-38,-70) scale(1,1)"><g><path fill="none" stroke="none"/><text fill="#000000" stroke="none" font-family="Arial" font-size="13px" font-style="normal" font-weight="bold" text-decoration="none" x="1615.681396484375" y="331.5">login.html</text><path fill="none" stroke="#000000" d="M 1674.549560546875 331.5 L 1612.450439453125 331.5" stroke-miterlimit="10"/></g></g><g transform="translate(-38,-70) scale(1,1)"><rect fill="#C0C0C0" stroke="none" x="55" y="87" width="248" height="1008" opacity="0.2"/></g><g transform="translate(-38,-70) scale(1,1)"><rect fill="#00a9ff" stroke="none" x="48" y="80" width="248" height="1008"/></g><g transform="translate(-38,-70) scale(1,1)"><path fill="none" stroke="#000000" d="M 48 80 L 296 80 L 296 1088 L 48 1088 L 48 80 Z Z" stroke-miterlimit="10"/></g><g transform="translate(-38,-70) scale(1,1)"><rect fill="#00a9ff" stroke="none" x="48" y="80" width="248" height="1008"/></g><g transform="translate(-38,-70) scale(1,1)"><path fill="none" stroke="#000000" d="M 48 80 L 296 80 L 296 1088 L 48 1088 L 48 80 Z Z" stroke-miterlimit="10"/></g><g transform="translate(-38,-70) scale(1,1)"><g><path fill="none" stroke="none"/><text fill="#000000" stroke="none" font-family="Arial" font-size="13px" font-style="normal" font-weight="bold" text-decoration="none" x="140.569580078125" y="99.5">layout.html</text><path fill="none" stroke="#000000" d="M 206.667724609375 99.5 L 137.332275390625 99.5" stroke-miterlimit="10"/></g></g><g transform="translate(-38,-70) scale(1,1)"><rect fill="#C0C0C0" stroke="none" x="303" y="87" width="1440" height="111" opacity="0.2"/></g><g transform="translate(-38,-70) scale(1,1)"><rect fill="#00a9ff" stroke="none" x="296" y="80" width="1440" height="111"/></g><g transform="translate(-38,-70) scale(1,1)"><path fill="none" stroke="#000000" d="M 296 80 L 1736 80 L 1736 191 L 296 191 L 296 80 Z Z" stroke-miterlimit="10"/></g><g transform="translate(-38,-70) scale(1,1)"><rect fill="#00a9ff" stroke="none" x="296" y="80" width="1440" height="111"/></g><g transform="translate(-38,-70) scale(1,1)"><path fill="none" stroke="#000000" d="M 296 80 L 1736 80 L 1736 191 L 296 191 L 296 80 Z Z" stroke-miterlimit="10"/></g><g transform="translate(-38,-70) scale(1,1)"><g><path fill="none" stroke="none"/><text fill="#000000" stroke="none" font-family="Arial" font-size="13px" font-style="normal" font-weight="bold" text-decoration="none" x="1016" y="99.5"></text><path fill="none" stroke="#000000" d="M 1016 99.5 L 1016 99.5" stroke-miterlimit="10"/></g></g><g transform="translate(-38,-70) scale(1,1)"><g><path fill="none" stroke="none"/><text fill="#000000" stroke="none" font-family="Arial" font-size="13px" font-style="normal" font-weight="normal" text-decoration="none" x="1653" y="122">Login</text></g></g><g transform="translate(-38,-70) scale(1,1)"><rect fill="#ffffff" stroke="none" x="1648" y="136" width="48" height="24"/></g><g transform="translate(-38,-70) scale(1,1)"><path fill="none" stroke="#000000" d="M 1648 136 L 1696 136 L 1696 160 L 1648 160 L 1648 136 Z Z" stroke-miterlimit="10"/></g><g transform="translate(-38,-70) scale(1,1)"><rect fill="#ffffff" stroke="none" x="1624" y="352" width="48" height="24"/></g><g transform="translate(-38,-70) scale(1,1)"><path fill="none" stroke="#000000" d="M 1624 352 L 1672 352 L 1672 376 L 1624 376 L 1624 352 Z Z" stroke-miterlimit="10"/></g><g transform="translate(-38,-70) scale(1,1)"><g><path fill="none" stroke="none"/><text fill="#000000" stroke="none" font-family="Arial" font-size="13px" font-style="normal" font-weight="normal" text-decoration="none" x="1629" y="402">Login</text></g></g><g transform="translate(-38,-70) scale(1,1)"><path fill="none" stroke="#000000" d="M 1600 312 L 1600 191" stroke-miterlimit="10"/></g><g transform="translate(-38,-70) scale(1,1)"><path fill="#000000" stroke="none" d="M 1604.2095177560159 201.16267485762415 L 1600 191 L 1595.7904822439841 201.16267485762415"/></g><g transform="translate(-38,-70) scale(1,1)"><path fill="none" stroke="#000000" d="M 1604.2095177560159 201.16267485762415 L 1600 191 L 1595.7904822439841 201.16267485762415 L 1604.2095177560159 201.16267485762415" stroke-miterlimit="10"/></g><g transform="translate(-38,-70) scale(1,1)"><path fill="none" stroke="#000000" d="M 1672 160 L 1672 313" stroke-miterlimit="10"/></g><g transform="translate(-38,-70) scale(1,1)"><path fill="#000000" stroke="none" d="M 1667.7904822439841 302.83732514237585 L 1672 313 L 1676.2095177560159 302.83732514237585"/></g><g transform="translate(-38,-70) scale(1,1)"><path fill="none" stroke="#000000" d="M 1667.7904822439841 302.83732514237585 L 1672 313 L 1676.2095177560159 302.83732514237585 L 1667.7904822439841 302.83732514237585" stroke-miterlimit="10"/></g><g transform="translate(-38,-70) scale(1,1)"><rect fill="#ffffff" stroke="none" x="136" y="224" width="48" height="24"/></g><g transform="translate(-38,-70) scale(1,1)"><path fill="none" stroke="#000000" d="M 136 224 L 184 224 L 184 248 L 136 248 L 136 224 Z Z" stroke-miterlimit="10"/></g><g transform="translate(-38,-70) scale(1,1)"><g><path fill="none" stroke="none"/><text fill="#000000" stroke="none" font-family="Arial" font-size="13px" font-style="normal" font-weight="normal" text-decoration="none" x="133" y="202">Product</text><text fill="#000000" stroke="none" font-family="Arial" font-size="13px" font-style="normal" font-weight="normal" text-decoration="none" x="133" y="215">Overview</text></g></g><g transform="translate(-38,-70) scale(1,1)"><g><path fill="none" stroke="none"/><text fill="#000000" stroke="none" font-family="Arial" font-size="13px" font-style="normal" font-weight="normal" text-decoration="none" x="133" y="274">Refill List</text></g></g><g transform="translate(-38,-70) scale(1,1)"><rect fill="#ffffff" stroke="none" x="137" y="284" width="48" height="24"/></g><g transform="translate(-38,-70) scale(1,1)"><path fill="none" stroke="#000000" d="M 137 284 L 185 284 L 185 308 L 137 308 L 137 284 Z Z" stroke-miterlimit="10"/></g><g transform="translate(-38,-70) scale(1,1)"><rect fill="#ffffff" stroke="none" x="136" y="338" width="48" height="24"/></g><g transform="translate(-38,-70) scale(1,1)"><path fill="none" stroke="#000000" d="M 136 338 L 184 338 L 184 362 L 136 362 L 136 338 Z Z" stroke-miterlimit="10"/></g><g transform="translate(-38,-70) scale(1,1)"><g><path fill="none" stroke="none"/><text fill="#000000" stroke="none" font-family="Arial" font-size="13px" font-style="normal" font-weight="normal" text-decoration="none" x="125" y="330">View Orders</text></g></g><g transform="translate(-38,-70) scale(1,1)"><rect fill="#ffffff" stroke="none" x="135" y="450" width="48" height="24"/></g><g transform="translate(-38,-70) scale(1,1)"><path fill="none" stroke="#000000" d="M 135 450 L 183 450 L 183 474 L 135 474 L 135 450 Z Z" stroke-miterlimit="10"/></g><g transform="translate(-38,-70) scale(1,1)"><g><path fill="none" stroke="none"/><text fill="#000000" stroke="none" font-family="Arial" font-size="13px" font-style="normal" font-weight="normal" text-decoration="none" x="133" y="434">Finances</text><text fill="#000000" stroke="none" font-family="Arial" font-size="13px" font-style="normal" font-weight="normal" text-decoration="none" x="133" y="447">Overview</text></g></g><g transform="translate(-38,-70) scale(1,1)"><rect fill="#ffffff" stroke="none" x="135" y="554" width="48" height="24"/></g><g transform="translate(-38,-70) scale(1,1)"><path fill="none" stroke="#000000" d="M 135 554 L 183 554 L 183 578 L 135 578 L 135 554 Z Z" stroke-miterlimit="10"/></g><g transform="translate(-38,-70) scale(1,1)"><g><path fill="none" stroke="none"/><text fill="#000000" stroke="none" font-family="Arial" font-size="13px" font-style="normal" font-weight="normal" text-decoration="none" x="117" y="530">Overview Human</text><text fill="#000000" stroke="none" font-family="Arial" font-size="13px" font-style="normal" font-weight="normal" text-decoration="none" x="117" y="543">Resources</text></g></g><g transform="translate(-38,-70) scale(1,1)"><rect fill="#ffffff" stroke="none" x="135" y="610" width="48" height="24"/></g><g transform="translate(-38,-70) scale(1,1)"><path fill="none" stroke="#000000" d="M 135 610 L 183 610 L 183 634 L 135 634 L 135 610 Z Z" stroke-miterlimit="10"/></g><g transform="translate(-38,-70) scale(1,1)"><g><path fill="none" stroke="none"/><text fill="#000000" stroke="none" font-family="Arial" font-size="13px" font-style="normal" font-weight="normal" text-decoration="none" x="124" y="602">Add Employee</text></g></g><g transform="translate(-38,-70) scale(1,1)"><rect fill="#ffffff" stroke="none" x="135" y="711" width="48" height="24"/></g><g transform="translate(-38,-70) scale(1,1)"><path fill="none" stroke="#000000" d="M 135 711 L 183 711 L 183 735 L 135 735 L 135 711 Z Z" stroke-miterlimit="10"/></g><g transform="translate(-38,-70) scale(1,1)"><g><path fill="none" stroke="none"/><text fill="#000000" stroke="none" font-family="Arial" font-size="13px" font-style="normal" font-weight="normal" text-decoration="none" x="124" y="703">Product List</text></g></g><g transform="translate(-38,-70) scale(1,1)"><rect fill="#ffffff" stroke="none" x="136" y="764" width="48" height="24"/></g><g transform="translate(-38,-70) scale(1,1)"><path fill="none" stroke="#000000" d="M 136 764 L 184 764 L 184 788 L 136 788 L 136 764 Z Z" stroke-miterlimit="10"/></g><g transform="translate(-38,-70) scale(1,1)"><g><path fill="none" stroke="none"/><text fill="#000000" stroke="none" font-family="Arial" font-size="13px" font-style="normal" font-weight="normal" text-decoration="none" x="149" y="756">Cart</text></g></g><g transform="translate(-38,-70) scale(1,1)"><g><path fill="none" stroke="none"/><text fill="#000000" stroke="none" font-family="Arial" font-size="13px" font-style="normal" font-weight="normal" text-decoration="none" x="124" y="866">Product List</text></g></g><g transform="translate(-38,-70) scale(1,1)"><rect fill="#ffffff" stroke="none" x="135" y="874" width="48" height="24"/></g><g transform="translate(-38,-70) scale(1,1)"><path fill="none" stroke="#000000" d="M 135 874 L 183 874 L 183 898 L 135 898 L 135 874 Z Z" stroke-miterlimit="10"/></g><g transform="translate(-38,-70) scale(1,1)"><g><path fill="none" stroke="none"/><text fill="#000000" stroke="none" font-family="Arial" font-size="13px" font-style="normal" font-weight="normal" text-decoration="none" x="149" y="919">Cart</text></g></g><g transform="translate(-38,-70) scale(1,1)"><rect fill="#ffffff" stroke="none" x="136" y="927" width="48" height="24"/></g><g transform="translate(-38,-70) scale(1,1)"><path fill="none" stroke="#000000" d="M 136 927 L 184 927 L 184 951 L 136 951 L 136 927 Z Z" stroke-miterlimit="10"/></g><g transform="translate(-38,-70) scale(1,1)"><g><path fill="none" stroke="none"/><text fill="#000000" stroke="none" font-family="Arial" font-size="13px" font-style="normal" font-weight="normal" text-decoration="none" x="124" y="978">Request Help</text></g></g><g transform="translate(-38,-70) scale(1,1)"><rect fill="#ffffff" stroke="none" x="135" y="986" width="48" height="24"/></g><g transform="translate(-38,-70) scale(1,1)"><path fill="none" stroke="#000000" d="M 135 986 L 183 986 L 183 1010 L 135 1010 L 135 986 Z Z" stroke-miterlimit="10"/></g><g transform="translate(-38,-70) scale(1,1)"><rect fill="#C0C0C0" stroke="none" x="335" y="503" width="175" height="87" opacity="0.2"/></g><g transform="translate(-38,-70) scale(1,1)"><rect fill="#00a9ff" stroke="none" x="328" y="496" width="175" height="87"/></g><g transform="translate(-38,-70) scale(1,1)"><path fill="none" stroke="#000000" d="M 328 496 L 503 496 L 503 583 L 328 583 L 328 496 Z Z" stroke-miterlimit="10"/></g><g transform="translate(-38,-70) scale(1,1)"><rect fill="#00a9ff" stroke="none" x="328" y="496" width="175" height="87"/></g><g transform="translate(-38,-70) scale(1,1)"><path fill="none" stroke="#000000" d="M 328 496 L 503 496 L 503 583 L 328 583 L 328 496 Z Z" stroke-miterlimit="10"/></g><g transform="translate(-38,-70) scale(1,1)"><g><path fill="none" stroke="none"/><text fill="#000000" stroke="none" font-family="Arial" font-size="13px" font-style="normal" font-weight="bold" text-decoration="none" x="362.030517578125" y="515.5">product-detail.html</text><path fill="none" stroke="#000000" d="M 474.358642578125 515.5 L 356.641357421875 515.5" stroke-miterlimit="10"/></g></g><g transform="translate(-38,-70) scale(1,1)"><rect fill="#C0C0C0" stroke="none" x="335" y="351" width="175" height="103" opacity="0.2"/></g><g transform="translate(-38,-70) scale(1,1)"><rect fill="#00a9ff" stroke="none" x="328" y="344" width="175" height="103"/></g><g transform="translate(-38,-70) scale(1,1)"><path fill="none" stroke="#000000" d="M 328 344 L 503 344 L 503 447 L 328 447 L 328 344 Z Z" stroke-miterlimit="10"/></g><g transform="translate(-38,-70) scale(1,1)"><rect fill="#00a9ff" stroke="none" x="328" y="344" width="175" height="103"/></g><g transform="translate(-38,-70) scale(1,1)"><path fill="none" stroke="#000000" d="M 328 344 L 503 344 L 503 447 L 328 447 L 328 344 Z Z" stroke-miterlimit="10"/></g><g transform="translate(-38,-70) scale(1,1)"><g><path fill="none" stroke="none"/><text fill="#000000" stroke="none" font-family="Arial" font-size="13px" font-style="normal" font-weight="bold" text-decoration="none" x="352.280517578125" y="363.5">product-overview.html</text><path fill="none" stroke="#000000" d="M 484.96240234375 363.5 L 346.03759765625 363.5" stroke-miterlimit="10"/></g></g><g transform="translate(-38,-70) scale(1,1)"><path fill="none" stroke="#000000" d="M 184 232 L 416 232 L 416 342" stroke-miterlimit="10"/></g><g transform="translate(-38,-70) scale(1,1)"><path fill="#000000" stroke="none" d="M 411.790482243984 331.83732514237585 L 416 342 L 420.209517756016 331.83732514237585"/></g><g transform="translate(-38,-70) scale(1,1)"><path fill="none" stroke="#000000" d="M 411.790482243984 331.83732514237585 L 416 342 L 420.209517756016 331.83732514237585 L 411.790482243984 331.83732514237585" stroke-miterlimit="10"/></g><g transform="translate(-38,-70) scale(1,1)"><path fill="none" stroke="#000000" d="M 408 448 L 409 496" stroke-miterlimit="10"/></g><g transform="translate(-38,-70) scale(1,1)"><path fill="#000000" stroke="none" d="M 404.57971900942056 485.92720912734103 L 409 496 L 412.9969280683424 485.75185060528014"/></g><g transform="translate(-38,-70) scale(1,1)"><path fill="none" stroke="#000000" d="M 404.57971900942056 485.92720912734103 L 409 496 L 412.9969280683424 485.75185060528014 L 404.57971900942056 485.92720912734103" stroke-miterlimit="10"/></g><g transform="translate(-38,-70) scale(1,1)"><rect fill="#C0C0C0" stroke="none" x="543" y="351" width="159" height="103" opacity="0.2"/></g><g transform="translate(-38,-70) scale(1,1)"><rect fill="#00a9ff" stroke="none" x="536" y="344" width="159" height="103"/></g><g transform="translate(-38,-70) scale(1,1)"><path fill="none" stroke="#000000" d="M 536 344 L 695 344 L 695 447 L 536 447 L 536 344 Z Z" stroke-miterlimit="10"/></g><g transform="translate(-38,-70) scale(1,1)"><rect fill="#00a9ff" stroke="none" x="536" y="344" width="159" height="103"/></g><g transform="translate(-38,-70) scale(1,1)"><path fill="none" stroke="#000000" d="M 536 344 L 695 344 L 695 447 L 536 447 L 536 344 Z Z" stroke-miterlimit="10"/></g><g transform="translate(-38,-70) scale(1,1)"><g><path fill="none" stroke="none"/><text fill="#000000" stroke="none" font-family="Arial" font-size="13px" font-style="normal" font-weight="bold" text-decoration="none" x="579.38818359375" y="363.5">refill-list.html</text><path fill="none" stroke="#000000" d="M 656.30908203125 363.5 L 574.69091796875 363.5" stroke-miterlimit="10"/></g></g><g transform="translate(-38,-70) scale(1,1)"><rect fill="#C0C0C0" stroke="none" x="735" y="351" width="167" height="103" opacity="0.2"/></g><g transform="translate(-38,-70) scale(1,1)"><rect fill="#00a9ff" stroke="none" x="728" y="344" width="167" height="103"/></g><g transform="translate(-38,-70) scale(1,1)"><path fill="none" stroke="#000000" d="M 728 344 L 895 344 L 895 447 L 728 447 L 728 344 Z Z" stroke-miterlimit="10"/></g><g transform="translate(-38,-70) scale(1,1)"><rect fill="#00a9ff" stroke="none" x="728" y="344" width="167" height="103"/></g><g transform="translate(-38,-70) scale(1,1)"><path fill="none" stroke="#000000" d="M 728 344 L 895 344 L 895 447 L 728 447 L 728 344 Z Z" stroke-miterlimit="10"/></g><g transform="translate(-38,-70) scale(1,1)"><g><path fill="none" stroke="none"/><text fill="#000000" stroke="none" font-family="Arial" font-size="13px" font-style="normal" font-weight="bold" text-decoration="none" x="778.990478515625" y="363.5">orders.html</text><path fill="none" stroke="#000000" d="M 847.25634765625 363.5 L 775.74365234375 363.5" stroke-miterlimit="10"/></g></g><g transform="translate(-38,-70) scale(1,1)"><rect fill="#C0C0C0" stroke="none" x="975" y="351" width="184.87841796875" height="103" opacity="0.2"/></g><g transform="translate(-38,-70) scale(1,1)"><rect fill="#00a9ff" stroke="none" x="968" y="344" width="184.87841796875" height="103"/></g><g transform="translate(-38,-70) scale(1,1)"><path fill="none" stroke="#000000" d="M 968 344 L 1152.87841796875 344 L 1152.87841796875 447 L 968 447 L 968 344 Z Z" stroke-miterlimit="10"/></g><g transform="translate(-38,-70) scale(1,1)"><rect fill="#00a9ff" stroke="none" x="968" y="344" width="184.87841796875" height="103"/></g><g transform="translate(-38,-70) scale(1,1)"><path fill="none" stroke="#000000" d="M 968 344 L 1152.87841796875 344 L 1152.87841796875 447 L 968 447 L 968 344 Z Z" stroke-miterlimit="10"/></g><g transform="translate(-38,-70) scale(1,1)"><g><path fill="none" stroke="none"/><text fill="#000000" stroke="none" font-family="Arial" font-size="13px" font-style="normal" font-weight="bold" text-decoration="none" x="987.460205078125" y="363.5">accounting-overview.html</text><path fill="none" stroke="#000000" d="M 1140.37841796875 363.5 L 980.5 363.5" stroke-miterlimit="10"/></g></g><g transform="translate(-38,-70) scale(1,1)"><rect fill="#C0C0C0" stroke="none" x="975" y="503" width="184" height="87" opacity="0.2"/></g><g transform="translate(-38,-70) scale(1,1)"><rect fill="#00a9ff" stroke="none" x="968" y="496" width="184" height="87"/></g><g transform="translate(-38,-70) scale(1,1)"><path fill="none" stroke="#000000" d="M 968 496 L 1152 496 L 1152 583 L 968 583 L 968 496 Z Z" stroke-miterlimit="10"/></g><g transform="translate(-38,-70) scale(1,1)"><rect fill="#00a9ff" stroke="none" x="968" y="496" width="184" height="87"/></g><g transform="translate(-38,-70) scale(1,1)"><path fill="none" stroke="#000000" d="M 968 496 L 1152 496 L 1152 583 L 968 583 L 968 496 Z Z" stroke-miterlimit="10"/></g><g transform="translate(-38,-70) scale(1,1)"><g><path fill="none" stroke="none"/><text fill="#000000" stroke="none" font-family="Arial" font-size="13px" font-style="normal" font-weight="bold" text-decoration="none" x="1025.681396484375" y="515.5">invoice.html</text><path fill="none" stroke="#000000" d="M 1097.924072265625 515.5 L 1022.075927734375 515.5" stroke-miterlimit="10"/></g></g><g transform="translate(-38,-70) scale(1,1)"><path fill="none" stroke="#000000" d="M 1056 448 L 1057 496" stroke-miterlimit="10"/></g><g transform="translate(-38,-70) scale(1,1)"><path fill="#000000" stroke="none" d="M 1052.5797190094206 485.92720912734103 L 1057 496 L 1060.9969280683424 485.75185060528014"/></g><g transform="translate(-38,-70) scale(1,1)"><path fill="none" stroke="#000000" d="M 1052.5797190094206 485.92720912734103 L 1057 496 L 1060.9969280683424 485.75185060528014 L 1052.5797190094206 485.92720912734103" stroke-miterlimit="10"/></g><g transform="translate(-38,-70) scale(1,1)"><rect fill="#C0C0C0" stroke="none" x="1231" y="351" width="191" height="104" opacity="0.2"/></g><g transform="translate(-38,-70) scale(1,1)"><rect fill="#00a9ff" stroke="none" x="1224" y="344" width="191" height="104"/></g><g transform="translate(-38,-70) scale(1,1)"><path fill="none" stroke="#000000" d="M 1224 344 L 1415 344 L 1415 448 L 1224 448 L 1224 344 Z Z" stroke-miterlimit="10"/></g><g transform="translate(-38,-70) scale(1,1)"><rect fill="#00a9ff" stroke="none" x="1224" y="344" width="191" height="104"/></g><g transform="translate(-38,-70) scale(1,1)"><path fill="none" stroke="#000000" d="M 1224 344 L 1415 344 L 1415 448 L 1224 448 L 1224 344 Z Z" stroke-miterlimit="10"/></g><g transform="translate(-38,-70) scale(1,1)"><g><path fill="none" stroke="none"/><text fill="#000000" stroke="none" font-family="Arial" font-size="13px" font-style="normal" font-weight="bold" text-decoration="none" x="1249.77734375" y="363.5">employee-overview.html</text><path fill="none" stroke="#000000" d="M 1394.7578125 363.5 L 1244.2421875 363.5" stroke-miterlimit="10"/></g></g><g transform="translate(-38,-70) scale(1,1)"><rect fill="#C0C0C0" stroke="none" x="1231" y="503" width="191" height="88" opacity="0.2"/></g><g transform="translate(-38,-70) scale(1,1)"><rect fill="#00a9ff" stroke="none" x="1224" y="496" width="191" height="88"/></g><g transform="translate(-38,-70) scale(1,1)"><path fill="none" stroke="#000000" d="M 1224 496 L 1415 496 L 1415 584 L 1224 584 L 1224 496 Z Z" stroke-miterlimit="10"/></g><g transform="translate(-38,-70) scale(1,1)"><rect fill="#00a9ff" stroke="none" x="1224" y="496" width="191" height="88"/></g><g transform="translate(-38,-70) scale(1,1)"><path fill="none" stroke="#000000" d="M 1224 496 L 1415 496 L 1415 584 L 1224 584 L 1224 496 Z Z" stroke-miterlimit="10"/></g><g transform="translate(-38,-70) scale(1,1)"><g><path fill="none" stroke="none"/><text fill="#000000" stroke="none" font-family="Arial" font-size="13px" font-style="normal" font-weight="bold" text-decoration="none" x="1259.52734375" y="515.5">employee-detail.html</text><path fill="none" stroke="#000000" d="M 1384.154052734375 515.5 L 1254.845947265625 515.5" stroke-miterlimit="10"/></g></g><g transform="translate(-38,-70) scale(1,1)"><path fill="none" stroke="#000000" d="M 1304 448 L 1305 496" stroke-miterlimit="10"/></g><g transform="translate(-38,-70) scale(1,1)"><path fill="#000000" stroke="none" d="M 1300.5797190094206 485.92720912734103 L 1305 496 L 1308.9969280683424 485.75185060528014"/></g><g transform="translate(-38,-70) scale(1,1)"><path fill="none" stroke="#000000" d="M 1300.5797190094206 485.92720912734103 L 1305 496 L 1308.9969280683424 485.75185060528014 L 1300.5797190094206 485.92720912734103" stroke-miterlimit="10"/></g><g transform="translate(-38,-70) scale(1,1)"><path fill="none" stroke="#000000" d="M 184 352 L 312 352 L 312 320 L 816 320 L 815 342" stroke-miterlimit="10"/></g><g transform="translate(-38,-70) scale(1,1)"><path fill="#000000" stroke="none" d="M 811.2562874862449 331.6566631779511 L 815 342 L 819.6666391016781 332.0389518877435"/></g><g transform="translate(-38,-70) scale(1,1)"><path fill="none" stroke="#000000" d="M 811.2562874862449 331.6566631779511 L 815 342 L 819.6666391016781 332.0389518877435 L 811.2562874862449 331.6566631779511" stroke-miterlimit="10"/></g><g transform="translate(-38,-70) scale(1,1)"><path fill="none" stroke="#000000" d="M 184 296 L 616 296 L 615 344" stroke-miterlimit="10"/></g><g transform="translate(-38,-70) scale(1,1)"><path fill="#000000" stroke="none" d="M 611.0030719316576 333.75185060528014 L 615 344 L 619.4202809905795 333.92720912734103"/></g><g transform="translate(-38,-70) scale(1,1)"><path fill="none" stroke="#000000" d="M 611.0030719316576 333.75185060528014 L 615 344 L 619.4202809905795 333.92720912734103 L 611.0030719316576 333.75185060528014" stroke-miterlimit="10"/></g><g transform="translate(-38,-70) scale(1,1)"><path fill="none" stroke="#000000" d="M 184 464 L 272 464 L 272 288 L 1064 288 L 1065 343" stroke-miterlimit="10"/></g><g transform="translate(-38,-70) scale(1,1)"><path fill="#000000" stroke="none" d="M 1060.6064324869806 332.9155285459008 L 1065 343 L 1069.0240767678188 332.7624804680674"/></g><g transform="translate(-38,-70) scale(1,1)"><path fill="none" stroke="#000000" d="M 1060.6064324869806 332.9155285459008 L 1065 343 L 1069.0240767678188 332.7624804680674 L 1060.6064324869806 332.9155285459008" stroke-miterlimit="10"/></g><g transform="translate(-38,-70) scale(1,1)"><path fill="none" stroke="#000000" d="M 184 568 L 264 568 L 264 280 L 1320 280 L 1319 343" stroke-miterlimit="10"/></g><g transform="translate(-38,-70) scale(1,1)"><path fill="#000000" stroke="none" d="M 1314.9523044249756 332.7717958305513 L 1319 343 L 1323.3702795382992 332.9054144831438"/></g><g transform="translate(-38,-70) scale(1,1)"><path fill="none" stroke="#000000" d="M 1314.9523044249756 332.7717958305513 L 1319 343 L 1323.3702795382992 332.9054144831438 L 1314.9523044249756 332.7717958305513" stroke-miterlimit="10"/></g><g transform="translate(-38,-70) scale(1,1)"><path fill="none" stroke="#000000" d="M 184 624 L 264 624 L 264 560" stroke-miterlimit="10"/></g><g transform="translate(-38,-70) scale(1,1)"><rect fill="#C0C0C0" stroke="none" x="335" y="711" width="167" height="103" opacity="0.2"/></g><g transform="translate(-38,-70) scale(1,1)"><rect fill="#00a9ff" stroke="none" x="328" y="704" width="167" height="103"/></g><g transform="translate(-38,-70) scale(1,1)"><path fill="none" stroke="#000000" d="M 328 704 L 495 704 L 495 807 L 328 807 L 328 704 Z Z" stroke-miterlimit="10"/></g><g transform="translate(-38,-70) scale(1,1)"><rect fill="#00a9ff" stroke="none" x="328" y="704" width="167" height="103"/></g><g transform="translate(-38,-70) scale(1,1)"><path fill="none" stroke="#000000" d="M 328 704 L 495 704 L 495 807 L 328 807 L 328 704 Z Z" stroke-miterlimit="10"/></g><g transform="translate(-38,-70) scale(1,1)"><g><path fill="none" stroke="none"/><text fill="#000000" stroke="none" font-family="Arial" font-size="13px" font-style="normal" font-weight="bold" text-decoration="none" x="376.45458984375" y="723.5">catalog.html</text><path fill="none" stroke="#000000" d="M 449.78271484375 723.5 L 373.21728515625 723.5" stroke-miterlimit="10"/></g></g><g transform="translate(-38,-70) scale(1,1)"><rect fill="#C0C0C0" stroke="none" x="535" y="711" width="168" height="103" opacity="0.2"/></g><g transform="translate(-38,-70) scale(1,1)"><rect fill="#00a9ff" stroke="none" x="528" y="704" width="168" height="103"/></g><g transform="translate(-38,-70) scale(1,1)"><path fill="none" stroke="#000000" d="M 528 704 L 696 704 L 696 807 L 528 807 L 528 704 Z Z" stroke-miterlimit="10"/></g><g transform="translate(-38,-70) scale(1,1)"><rect fill="#00a9ff" stroke="none" x="528" y="704" width="168" height="103"/></g><g transform="translate(-38,-70) scale(1,1)"><path fill="none" stroke="#000000" d="M 528 704 L 696 704 L 696 807 L 528 807 L 528 704 Z Z" stroke-miterlimit="10"/></g><g transform="translate(-38,-70) scale(1,1)"><g><path fill="none" stroke="none"/><text fill="#000000" stroke="none" font-family="Arial" font-size="13px" font-style="normal" font-weight="bold" text-decoration="none" x="587.0791015625" y="723.5">cart.html</text><path fill="none" stroke="#000000" d="M 639.450439453125 723.5 L 584.549560546875 723.5" stroke-miterlimit="10"/></g></g><g transform="translate(-38,-70) scale(1,1)"><rect fill="#C0C0C0" stroke="none" x="735" y="711" width="175" height="103" opacity="0.2"/></g><g transform="translate(-38,-70) scale(1,1)"><rect fill="#00a9ff" stroke="none" x="728" y="704" width="175" height="103"/></g><g transform="translate(-38,-70) scale(1,1)"><path fill="none" stroke="#000000" d="M 728 704 L 903 704 L 903 807 L 728 807 L 728 704 Z Z" stroke-miterlimit="10"/></g><g transform="translate(-38,-70) scale(1,1)"><rect fill="#00a9ff" stroke="none" x="728" y="704" width="175" height="103"/></g><g transform="translate(-38,-70) scale(1,1)"><path fill="none" stroke="#000000" d="M 728 704 L 903 704 L 903 807 L 728 807 L 728 704 Z Z" stroke-miterlimit="10"/></g><g transform="translate(-38,-70) scale(1,1)"><g><path fill="none" stroke="none"/><text fill="#000000" stroke="none" font-family="Arial" font-size="13px" font-style="normal" font-weight="bold" text-decoration="none" x="789.12548828125" y="723.5">help.html</text><path fill="none" stroke="#000000" d="M 844.38818359375 723.5 L 786.61181640625 723.5" stroke-miterlimit="10"/></g></g><g transform="translate(-38,-70) scale(1,1)"><path fill="none" stroke="#000000" d="M 184 1000 L 968 1000 L 968 664 L 824 664 L 823 703" stroke-miterlimit="10"/></g><g transform="translate(-38,-70) scale(1,1)"><path fill="#000000" stroke="none" d="M 819.0523611490146 692.732763395042 L 823 703 L 827.4686304262053 692.9485651713802"/></g><g transform="translate(-38,-70) scale(1,1)"><path fill="none" stroke="#000000" d="M 819.0523611490146 692.732763395042 L 823 703 L 827.4686304262053 692.9485651713802 L 819.0523611490146 692.732763395042" stroke-miterlimit="10"/></g><g transform="translate(-38,-70) scale(1,1)"><path fill="none" stroke="#000000" d="M 184 720 L 264 720 L 264 680 L 416 680 L 416 704" stroke-miterlimit="10"/></g><g transform="translate(-38,-70) scale(1,1)"><path fill="#000000" stroke="none" d="M 411.790482243984 693.8373251423759 L 416 704 L 420.209517756016 693.8373251423759"/></g><g transform="translate(-38,-70) scale(1,1)"><path fill="none" stroke="#000000" d="M 411.790482243984 693.8373251423759 L 416 704 L 420.209517756016 693.8373251423759 L 411.790482243984 693.8373251423759" stroke-miterlimit="10"/></g><g transform="translate(-38,-70) scale(1,1)"><path fill="none" stroke="#000000" d="M 184 776 L 272 776 L 272 656 L 616 656 L 615 702" stroke-miterlimit="10"/></g><g transform="translate(-38,-70) scale(1,1)"><path fill="#000000" stroke="none" d="M 611.0123521078249 691.7482360401718 L 615 702 L 619.429398949577 691.9312153193404"/></g><g transform="translate(-38,-70) scale(1,1)"><path fill="none" stroke="#000000" d="M 611.0123521078249 691.7482360401718 L 615 702 L 619.429398949577 691.9312153193404 L 611.0123521078249 691.7482360401718" stroke-miterlimit="10"/></g><g transform="translate(-38,-70) scale(1,1)"><path fill="none" stroke="#000000" d="M 184 888 L 264 888 L 264 712" stroke-miterlimit="10"/></g><g transform="translate(-38,-70) scale(1,1)"><path fill="none" stroke="#000000" d="M 184 936 L 272 936 L 272 776" stroke-miterlimit="10"/></g><g transform="translate(-38,-70) scale(1,1)"><g><path fill="none" stroke="none"/><text fill="#000000" stroke="none" font-family="Arial" font-size="13px" font-style="normal" font-weight="normal" text-decoration="none" x="581" y="746">Checkout</text></g></g><g transform="translate(-38,-70) scale(1,1)"><rect fill="#ffffff" stroke="none" x="585" y="752" width="48" height="24"/></g><g transform="translate(-38,-70) scale(1,1)"><path fill="none" stroke="#000000" d="M 585 752 L 633 752 L 633 776 L 585 776 L 585 752 Z Z" stroke-miterlimit="10"/></g><g transform="translate(-38,-70) scale(1,1)"><path fill="none" stroke="#000000" d="M 608 808 L 608 968 L 294 969" stroke-miterlimit="10"/></g><g transform="translate(-38,-70) scale(1,1)"><path fill="#000000" stroke="none" d="M 304.1492172815444 964.7581385487028 L 294 969 L 304.17602936058177 973.1771313664497"/></g><g transform="translate(-38,-70) scale(1,1)"><path fill="none" stroke="#000000" d="M 304.1492172815444 964.7581385487028 L 294 969 L 304.17602936058177 973.1771313664497 L 304.1492172815444 964.7581385487028" stroke-miterlimit="10"/></g></g></svg>